<svg xmlns="http://www.w3.org/2000/svg" width="21.336" height="18" viewBox="0 0 21.336 18">
  <path id="Icon" d="M17.44,18H3.9a3.9,3.9,0,0,1-2.747-1.144H1.15l-.018-.018A3.862,3.862,0,0,1,0,14.1V3.891A3.865,3.865,0,0,1,1.15,1.15l.005-.013.018-.023A3.872,3.872,0,0,1,3.9,0H17.44a3.884,3.884,0,0,1,3.9,3.891V14.1A3.889,3.889,0,0,1,20.2,16.856l-.054.041A3.876,3.876,0,0,1,17.44,18ZM3.9,1.639a2.233,2.233,0,0,0-1.59.655V2.3a2.258,2.258,0,0,0-.661,1.591V14.1a2.267,2.267,0,0,0,.661,1.591,2.217,2.217,0,0,0,1.59.667H17.44A2.252,2.252,0,0,0,19,15.73l.03-.036a2.267,2.267,0,0,0,.661-1.591V3.891A2.259,2.259,0,0,0,19.031,2.3a2.217,2.217,0,0,0-1.59-.661ZM15.921,14.18a.486.486,0,0,1-.495-.488V8.324h-.965a.5.5,0,0,1-.495-.483V4.91a.5.5,0,0,1,.495-.489h.965V4.3a.487.487,0,0,1,.495-.489.492.492,0,0,1,.494.489v.119h.965a.483.483,0,0,1,.489.489V7.841a.487.487,0,0,1-.489.483h-.965v5.369A.5.5,0,0,1,15.921,14.18ZM14.949,5.4V7.34h1.936V5.4ZM10.678,14.18a.5.5,0,0,1-.507-.488v-.113H9.205a.484.484,0,0,1-.482-.495v-2.92a.483.483,0,0,1,.482-.494h.966V4.3a.493.493,0,0,1,.507-.489.48.48,0,0,1,.482.489V9.67h.965a.5.5,0,0,1,.495.494v2.92a.5.5,0,0,1-.495.495H11.16v.113A.486.486,0,0,1,10.678,14.18ZM9.7,10.66V12.6h1.941V10.66ZM5.416,14.18a.5.5,0,0,1-.5-.488V10.946H3.963a.49.49,0,0,1-.5-.489V7.537a.493.493,0,0,1,.5-.495h.958V4.3a.5.5,0,0,1,1,0v2.74h.965a.5.5,0,0,1,.495.495v2.92a.5.5,0,0,1-.495.489H5.917v2.747A.5.5,0,0,1,5.416,14.18ZM4.445,8.026V9.968H6.393V8.026Z" fill="#f78500"/>
</svg>
