<svg xmlns="http://www.w3.org/2000/svg" width="14.728" height="18" viewBox="0 0 14.728 18">
  <path id="Icon" d="M10.636,18H2.046A2.048,2.048,0,0,1,0,15.954V3.682a2.02,2.02,0,0,1,.156-.773L0,2.864l.471-.471A2.062,2.062,0,0,1,.761,2.1L2.21.654,2.3.564,2.864,0,3,.139A2.129,2.129,0,0,1,3.748,0h10.98V14.318A2.036,2.036,0,0,1,13.4,16.213l-1.477,1.771-.3-.249A2.025,2.025,0,0,1,10.636,18ZM2.046,2.864a.819.819,0,0,0-.818.818V15.954a.819.819,0,0,0,.818.818h8.59a.819.819,0,0,0,.818-.818V2.864H9.818V9.05L7.7,7.356,5.728,9.176V2.864Zm1.7-1.644a.911.911,0,0,0-.757.409h9.691v13.5h.029l.319-.384.193.159a.785.785,0,0,0,.278-.585V1.228ZM7.642,5.736h0l.948.76V2.864H6.954V6.369l.687-.633Z" transform="translate(0 0)" fill="#f78500"/>
</svg>
