<?xml version="1.0" encoding="utf-8"?>
<!-- Generator: Adobe Illustrator 23.0.0, SVG Export Plug-In . SVG Version: 6.00 Build 0)  -->
<svg version="1.0" id="a6364908-848b-40d6-9950-4bce8892e1b3"
	 xmlns="http://www.w3.org/2000/svg" xmlns:xlink="http://www.w3.org/1999/xlink" x="0px" y="0px" viewBox="0 0 500 500"
	 style="enable-background:new 0 0 500 500;" xml:space="preserve">
<title>onboarding</title>
<g id="a5ab5f8d-e16f-4cb4-88cb-b057e03d8928">
	<path id="bee91476-19b3-4ffd-ac4c-b7154a5edf01" style="opacity:0.1;fill:#252223;enable-background:new    ;" d="M442.8,369.1
		c-3.6,1.9-7.3,3.5-11,5c-13.7,5.8-27.6,11.6-42.3,13.6c-27.6,3.7-56.1-6.4-83.3-0.1c-22.7,5.2-41.5,21.3-63.7,28.5
		c-10.3,3.2-21.1,4.8-31.9,4.6h-1.4c-1.3,0-2.7,0-4-0.1c-11-0.5-22-1.9-32.8-4.1c-34-6.5-68.6-18.5-94.7-40.6
		C153.4,362,309.4,340.8,442.8,369.1z"/>
	<path id="b82587b1-0cea-43d1-8639-78b8af36bfd7" style="opacity:0.3;fill:#2CABE3;enable-background:new    ;" d="M469.2,203.5
		v-32.2H450v32.2h-22.7v-49.8h-16.6v-37.3h-13.6V78.1H369v38.3h-13.6v37.3h-16.1v-44.8h-9.1V86.2h-5.5v22.7h-32.2v143h-24.7v-15.1
		h-15.1v15.1H228v-48.4h-44.3v-32.2h-19.1v32.2h-1v61.9h-20.1v-36.2h-24.2v36.2H99.2V153.6H83.6v-37.3H26.2v37.3H11.1v196.8h480.8
		v-147L469.2,203.5z"/>
	
		<rect id="aed6351a-efee-493f-8a4a-fa8427130a7c" x="20.6" y="165.2" style="opacity:0.4;fill:#FFFFFF;enable-background:new    ;" width="21.1" height="12.1"/>
	
		<rect id="a41f97ce-d52f-4e6c-b70c-4599e2df6fe6" x="67.9" y="165.2" style="opacity:0.4;fill:#FFFFFF;enable-background:new    ;" width="21.1" height="12.1"/>
	
		<rect id="bfbc6f45-7786-4da2-aa8a-8b3ce81e79f8" x="20.6" y="188.9" style="opacity:0.4;fill:#FFFFFF;enable-background:new    ;" width="21.1" height="12.1"/>
	
		<rect id="ae88ef08-6a26-4810-ac7e-49bced307113" x="67.9" y="188.9" style="opacity:0.4;fill:#FFFFFF;enable-background:new    ;" width="21.1" height="12.1"/>
	
		<rect id="b20bd3fb-4211-439a-b501-5f1ea6279335" x="20.6" y="212.5" style="opacity:0.4;fill:#FFFFFF;enable-background:new    ;" width="21.1" height="12.1"/>
	
		<rect id="ab59b3de-e085-48f6-b137-785b59d01668" x="67.9" y="212.5" style="opacity:0.4;fill:#FFFFFF;enable-background:new    ;" width="21.1" height="12.1"/>
	
		<rect id="b1127346-d754-40e0-b514-a666da53fd77" x="20.6" y="236.2" style="opacity:0.4;fill:#FFFFFF;enable-background:new    ;" width="21.1" height="12.1"/>
	
		<rect id="b2dc802c-6d85-446d-8eda-4dca0ec47523" x="67.9" y="236.2" style="opacity:0.4;fill:#FFFFFF;enable-background:new    ;" width="21.1" height="12.1"/>
	
		<rect id="bdaeea8d-abed-4834-8344-52a9e104fc96" x="20.6" y="259.9" style="opacity:0.4;fill:#FFFFFF;enable-background:new    ;" width="21.1" height="12.1"/>
	
		<rect id="ad975fc3-50ef-4102-8bda-50bd0cdbc245" x="67.9" y="259.9" style="opacity:0.4;fill:#FFFFFF;enable-background:new    ;" width="21.1" height="12.1"/>
	
		<rect id="fbb88305-6883-4b63-80c6-476b6f70e98f" x="20.6" y="283.5" style="opacity:0.4;fill:#FFFFFF;enable-background:new    ;" width="21.1" height="12.1"/>
	
		<rect id="f93179ac-cb0c-4db0-b836-abe6576c1b45" x="67.9" y="283.5" style="opacity:0.4;fill:#FFFFFF;enable-background:new    ;" width="21.1" height="12.1"/>
	
		<rect id="be322959-3472-4797-8828-036c7061568d" x="20.6" y="307.2" style="opacity:0.4;fill:#FFFFFF;enable-background:new    ;" width="21.1" height="12.1"/>
	
		<rect id="a2da6609-a573-487c-96c2-eacd93fe29a7" x="67.9" y="307.2" style="opacity:0.4;fill:#FFFFFF;enable-background:new    ;" width="21.1" height="12.1"/>
	
		<rect id="b9a185a9-d3b7-4c61-a1f2-55583980de7e" x="106.7" y="277.5" style="opacity:0.4;fill:#FFFFFF;enable-background:new    ;" width="49.3" height="6"/>
	
		<rect id="f6539e0b-c2da-4954-8491-20c444e0f83d" x="106.7" y="286.5" style="opacity:0.4;fill:#FFFFFF;enable-background:new    ;" width="49.3" height="6"/>
	
		<rect id="bbe79a99-cbea-4ca6-b5ba-a13c230ac7ea" x="106.7" y="295.6" style="opacity:0.4;fill:#FFFFFF;enable-background:new    ;" width="49.3" height="6"/>
	
		<rect id="e84f2f50-02d8-47dc-b3d7-782a289ec9ba" x="235.6" y="280.5" style="opacity:0.4;fill:#FFFFFF;enable-background:new    ;" width="49.3" height="6"/>
	
		<rect id="e6a86fb9-4823-4eee-891a-22c2ab3a5c62" x="235.6" y="289.5" style="opacity:0.4;fill:#FFFFFF;enable-background:new    ;" width="49.3" height="6"/>
	
		<rect id="b70060f9-8128-44b1-8df5-efabaddb1c19" x="235.6" y="298.6" style="opacity:0.4;fill:#FFFFFF;enable-background:new    ;" width="49.3" height="6"/>
	
		<rect id="f63634fd-1b13-4acc-9f0a-d1918ca25a06" x="106.7" y="304.6" style="opacity:0.4;fill:#FFFFFF;enable-background:new    ;" width="49.3" height="6"/>
	
		<rect id="f683b68c-5454-492f-a529-6411cfa89f5a" x="106.7" y="313.7" style="opacity:0.4;fill:#FFFFFF;enable-background:new    ;" width="49.3" height="6"/>
	
		<rect id="eb173240-2cf1-44cb-ad2f-3900ac0d5149" x="106.7" y="322.8" style="opacity:0.4;fill:#FFFFFF;enable-background:new    ;" width="49.3" height="6"/>
	
		<rect id="a9f3c4f5-6db4-440a-8e89-6543de317698" x="174.2" y="215" style="opacity:0.4;fill:#FFFFFF;enable-background:new    ;" width="13.6" height="17.6"/>
	
		<rect id="b4d74222-427c-40b8-8940-614196f05a38" x="203.9" y="215" style="opacity:0.4;fill:#FFFFFF;enable-background:new    ;" width="13.6" height="17.6"/>
	
		<rect id="b01455c7-e79a-49b6-b8ba-918978047e59" x="174.2" y="243.2" style="opacity:0.4;fill:#FFFFFF;enable-background:new    ;" width="13.6" height="17.6"/>
	
		<rect id="f26e0296-510c-4312-b705-d60b13a9fc4c" x="203.9" y="243.2" style="opacity:0.4;fill:#FFFFFF;enable-background:new    ;" width="13.6" height="17.6"/>
	
		<rect id="a8b1130b-7c5e-4490-acca-de3e13d647c7" x="174.2" y="271.4" style="opacity:0.4;fill:#FFFFFF;enable-background:new    ;" width="13.6" height="17.6"/>
	
		<rect id="aa8c9af4-8e74-4b28-8af5-87e8e155b080" x="203.9" y="271.4" style="opacity:0.4;fill:#FFFFFF;enable-background:new    ;" width="13.6" height="17.6"/>
	
		<rect id="a73871ec-5f8e-4339-9819-c3623732dc8e" x="174.2" y="299.6" style="opacity:0.4;fill:#FFFFFF;enable-background:new    ;" width="13.6" height="17.6"/>
	
		<rect id="b9b1ceda-640e-497a-b962-c9626e6f68d6" x="203.9" y="299.6" style="opacity:0.4;fill:#FFFFFF;enable-background:new    ;" width="13.6" height="17.6"/>
	
		<rect id="a6096ef8-726e-4a92-a2d1-6adf13c02ae3" x="292.5" y="120.4" style="opacity:0.4;fill:#FFFFFF;enable-background:new    ;" width="18.1" height="23.2"/>
	
		<rect id="b52f1c19-bf7a-4d74-a813-3dfc53a5f046" x="292.5" y="153.6" style="opacity:0.4;fill:#FFFFFF;enable-background:new    ;" width="18.1" height="23.2"/>
	
		<rect id="a7d51fbb-3d36-42a0-a9a4-b46549f22e66" x="292.5" y="186.9" style="opacity:0.4;fill:#FFFFFF;enable-background:new    ;" width="18.1" height="23.2"/>
	
		<rect id="b0c4264f-f1fa-45d0-be8d-47bbd8015474" x="292.5" y="220.1" style="opacity:0.4;fill:#FFFFFF;enable-background:new    ;" width="18.1" height="23.2"/>
	
		<rect id="b8ec6a0e-be3e-4722-882b-1025dfa2f5b6" x="292.5" y="253.3" style="opacity:0.4;fill:#FFFFFF;enable-background:new    ;" width="18.1" height="23.2"/>
	
		<rect id="a2d9573e-fc27-477c-b9a5-961dd39e569e" x="292.5" y="286.5" style="opacity:0.4;fill:#FFFFFF;enable-background:new    ;" width="18.1" height="23.2"/>
	
		<rect id="e6c7adc8-b4a4-4380-8194-345a4d967b2a" x="349.6" y="167.7" style="opacity:0.4;fill:#FFFFFF;enable-background:new    ;" width="67.5" height="19.6"/>
	
		<rect id="a3af6966-cb43-48ac-a138-17119e22e31c" x="349.9" y="210" style="opacity:0.4;fill:#FFFFFF;enable-background:new    ;" width="67.5" height="19.6"/>
	
		<rect id="af8a1ae6-509a-4756-b202-a8b402533658" x="350.1" y="252.3" style="opacity:0.4;fill:#FFFFFF;enable-background:new    ;" width="67.5" height="19.6"/>
	
		<rect id="aad008e6-2c17-4bd2-b6c1-650a46f95149" x="350.4" y="294.6" style="opacity:0.4;fill:#FFFFFF;enable-background:new    ;" width="67.5" height="19.6"/>
	
		<rect id="b5c39ad6-a460-474d-bb15-86ee6db8588f" x="26.2" y="126.9" style="opacity:0.4;fill:#FFFFFF;enable-background:new    ;" width="9.1" height="19.1"/>
	
		<rect id="ef8fbc07-9020-4c2b-aec1-5548aac74868" x="469.2" y="215" style="opacity:0.4;fill:#FFFFFF;enable-background:new    ;" width="22.6" height="29.2"/>
	
		<rect id="b526a9a0-562c-4f20-b878-16740fcf548b" x="469.2" y="257.3" style="opacity:0.4;fill:#FFFFFF;enable-background:new    ;" width="22.6" height="29.2"/>
	
		<rect id="ffd330e6-35a1-4052-8acb-6258c0b8094b" x="469.2" y="299.6" style="opacity:0.4;fill:#FFFFFF;enable-background:new    ;" width="22.6" height="29.2"/>
	<path id="bd9e619a-2804-426e-be52-980250158d5d" style="fill:#2CABE3;" d="M36.1,319.5c0,0-39.6,23.9,33.4,60.7
		c0,0,16.1-29.9-1.7-54.2c-7.1-9.8-20.5-12.8-31.1-6.8L36.1,319.5z"/>
	<path id="ace2d32f-2358-4257-98f4-ab6c83917a84" style="fill:none;stroke:#535461;stroke-width:1.45;stroke-miterlimit:10;" d="
		M36.5,319c0,0,33.9,26,33,61.2"/>
	<path id="ad25cb64-b688-4767-b42e-858be8fdf656" style="fill:none;stroke:#535461;stroke-width:2.89;stroke-miterlimit:10;" d="
		M71.3,381.6c0,0-12.4-42.2,2.3-73.2c6.3-13,8.2-27.6,5.4-41.8c-1.4-6.7-3.3-13.3-5.9-19.6"/>
	<path id="e29d51c8-ff1b-41a7-bdcc-2b19ea2643b1" style="fill:#2CABE3;" d="M82.3,227.4c0,5.2-9.4,20.1-9.4,20.1s-9.4-15-9.4-20.1
		c0-5.2,4.2-9.4,9.3-9.4c5,0,9.2,3.9,9.4,8.9L82.3,227.4L82.3,227.4z"/>
	<path id="a3ce9186-5976-4779-94db-b948e23d06be" style="fill:#2CABE3;" d="M97.8,256C95,260.4,79,267.9,79,267.9s0.3-17.7,3.1-22
		c3.1-4.2,8.9-5,13.1-1.9C99,246.7,100.1,251.9,97.8,256z"/>
	<path id="e00d2138-59c4-4fe9-afab-5b2f14e102b5" style="fill:#2CABE3;" d="M97.1,305c-4.6,2.3-22.2,0.7-22.2,0.7
		s9.2-15.1,13.8-17.4c4.7-2.2,10.3-0.3,12.5,4.4C103.3,297.2,101.5,302.6,97.1,305L97.1,305z"/>
	<path id="ad91c838-c166-47ec-ade8-521801978219" style="fill:#2CABE3;" d="M88.3,341.9c-4.2,3.1-21.8,4.5-21.8,4.5
		s6.5-16.4,10.6-19.5c4.1-3.1,10-2.3,13.1,1.8c3.1,4.1,2.3,10-1.8,13.1C88.4,341.8,88.3,341.8,88.3,341.9L88.3,341.9z"/>
	<path id="e34c3eb2-ece9-46f8-9783-6b77be1f9e1c" style="fill:#2CABE3;" d="M59.3,268.9c3.7,3.6,21,7.3,21,7.3s-4.3-17.2-8-20.7
		c-3.6-3.7-9.5-3.9-13.2-0.3c-3.7,3.6-3.9,9.5-0.3,13.2c0.1,0.1,0.1,0.1,0.2,0.2L59.3,268.9L59.3,268.9z"/>
	<path id="ad7f2cc1-3195-4c20-a8f2-75d19b132539" style="fill:#2CABE3;" d="M49.5,312.1c4.6,2.3,22.2,0.7,22.2,0.7
		s-9.2-15.1-13.7-17.4c-4.7-2.2-10.3-0.3-12.5,4.4C43.3,304.4,45.1,309.8,49.5,312.1L49.5,312.1z"/>
	<path id="ec4e2933-f6bf-41bc-90f1-4e97ad8b891c" style="fill:#2CABE3;" d="M45.8,355.5c4.2,3.1,21.8,4.5,21.8,4.5
		s-6.5-16.4-10.7-19.5c-4.3-2.8-10.1-1.5-12.9,2.8C41.4,347.2,42.2,352.4,45.8,355.5L45.8,355.5L45.8,355.5z"/>
	<path id="a4f12e0f-fb5d-4282-be48-578e052bbc3c" style="opacity:0.25;enable-background:new    ;" d="M82.3,227.4
		c0,5.2-9.4,20.1-9.4,20.1s-9.4-15-9.4-20.1c0-5.2,4.2-9.4,9.3-9.4c5,0,9.2,3.9,9.4,8.9L82.3,227.4L82.3,227.4z"/>
	<path id="a7b841af-b2cc-4c24-832a-fb78a99518bb" style="opacity:0.25;enable-background:new    ;" d="M97.8,256
		C95,260.4,79,267.9,79,267.9s0.3-17.7,3.1-22c3.1-4.2,8.9-5,13.1-1.9C99,246.7,100.1,251.9,97.8,256z"/>
	<path id="e250a5f0-31b6-4ec0-b9a8-68ba5f279fb7" style="opacity:0.25;enable-background:new    ;" d="M97.1,305
		c-4.6,2.3-22.2,0.7-22.2,0.7s9.2-15.1,13.8-17.4c4.7-2.2,10.3-0.3,12.5,4.4C103.3,297.2,101.5,302.6,97.1,305L97.1,305z"/>
	<path id="b81a9366-20d8-4fce-a0c3-27f0f64da410" style="opacity:0.25;enable-background:new    ;" d="M88.3,341.9
		c-4.2,3.1-21.8,4.5-21.8,4.5s6.5-16.4,10.6-19.5c4.1-3.1,10-2.3,13.1,1.8c3.1,4.1,2.3,10-1.8,13.1
		C88.4,341.8,88.3,341.8,88.3,341.9L88.3,341.9z"/>
	<path id="bd96cc73-566c-4101-b7e7-425a3e8ac670" style="opacity:0.25;enable-background:new    ;" d="M59.3,268.9
		c3.7,3.6,21,7.3,21,7.3s-4.3-17.2-8-20.7c-3.6-3.7-9.5-3.9-13.2-0.3c-3.7,3.6-3.9,9.5-0.3,13.2c0.1,0.1,0.1,0.1,0.2,0.2L59.3,268.9
		L59.3,268.9z"/>
	<path id="e46bce16-234a-4b06-a3a3-0962f6269758" style="opacity:0.25;enable-background:new    ;" d="M49.5,312.1
		c4.6,2.3,22.2,0.7,22.2,0.7s-9.2-15.1-13.7-17.4c-4.7-2.2-10.3-0.3-12.5,4.4C43.3,304.4,45.1,309.8,49.5,312.1L49.5,312.1z"/>
	<path id="ecffad53-010b-433a-9277-9abf29fd0f38" style="opacity:0.25;enable-background:new    ;" d="M45.8,355.5
		c4.2,3.1,21.8,4.5,21.8,4.5s-6.5-16.4-10.7-19.5c-4.3-2.8-10.1-1.5-12.9,2.8C41.4,347.2,42.2,352.4,45.8,355.5L45.8,355.5
		L45.8,355.5z"/>
	<path id="fb389f32-883b-464b-ac1e-fb007c61d598" style="fill:none;stroke:#535461;stroke-width:2.89;stroke-miterlimit:10;" d="
		M459,370.7c0,0-12.4-42.2,2.3-73.2c6.3-13,8.2-27.6,5.4-41.8c-1.4-6.7-3.3-13.3-5.9-19.6"/>
	<path id="b546f5cf-3327-4116-9101-0c10ba69b5dc" style="fill:#2CABE3;" d="M470,216.5c0,5.2-9.4,20.1-9.4,20.1s-9.4-15-9.4-20.1
		c-0.2-5.2,3.8-9.5,8.9-9.8c5.2-0.2,9.5,3.8,9.8,8.9c0,0.1,0,0.3,0,0.4V216.5z"/>
	<path id="e9b35a05-1113-4a41-8707-314f89a515c3" style="fill:#2CABE3;" d="M485.4,245.1c-2.8,4.3-18.8,11.8-18.8,11.8
		s0.3-17.7,3.1-22c2.7-4.4,8.4-5.8,12.9-3.2c4.4,2.7,5.8,8.4,3.2,12.9c-0.1,0.1-0.1,0.2-0.2,0.3L485.4,245.1z"/>
	<path id="ebd37511-abef-48b9-8856-e07cb25d1cd2" style="fill:#2CABE3;" d="M484.8,294.1c-4.6,2.3-22.2,0.7-22.2,0.7
		s9.2-15.1,13.8-17.4c4.7-2.2,10.3-0.3,12.5,4.4C491,286.3,489.2,291.7,484.8,294.1L484.8,294.1z"/>
	<path id="e98dd1c2-be98-4ee0-9d49-b49ae05f6af3" style="fill:#2CABE3;" d="M475.9,331c-4.1,3.1-21.8,4.5-21.8,4.5
		s6.5-16.4,10.6-19.5c4.3-2.8,10.1-1.5,12.9,2.8C480.3,322.7,479.5,327.9,475.9,331L475.9,331z"/>
	<path id="b82dbc1d-d935-4a6f-b385-0e335ad6b240" style="fill:#2CABE3;" d="M447,258c3.7,3.6,21,7.3,21,7.3s-4.2-17.1-7.9-20.8
		c-3.7-3.6-9.6-3.5-13.2,0.2C443.2,248.5,443.3,254.4,447,258L447,258z"/>
	<path id="be015ada-db46-4241-9bd6-b809a8621b62" style="fill:#2CABE3;" d="M437.2,301.3c4.6,2.3,22.2,0.7,22.2,0.7
		s-9.2-15.1-13.8-17.4c-4.6-2.3-10.2-0.5-12.6,4.1C430.7,293.3,432.6,298.9,437.2,301.3L437.2,301.3z"/>
	<path id="ad93f86d-7783-494e-bd83-4a22984b052f" style="fill:#2CABE3;" d="M433.4,344.6c4.1,3.1,21.8,4.5,21.8,4.5
		s-6.5-16.4-10.6-19.5c-4.2-3-10-2.1-13.1,2.1C428.5,335.8,429.4,341.6,433.4,344.6L433.4,344.6z"/>
	<path id="b02af2f9-9599-46fe-baf6-7244d7d3f214" style="fill:none;stroke:#535461;stroke-width:2.89;stroke-miterlimit:10;" d="
		M403,366.6c0,0-6.7-22.6,1.3-39.3c3.4-7,4.4-14.9,2.9-22.5c-0.7-3.6-1.8-7.1-3.2-10.5"/>
	<path id="b72033d0-b73e-46bc-b100-afae847670e7" style="fill:#2CABE3;" d="M408.9,283.8c0,2.8-5,10.8-5,10.8s-5-8-5-10.8
		c0-2.8,2.3-5,5-5S408.9,281,408.9,283.8L408.9,283.8z"/>
	<path id="bf23c824-081c-400b-ad34-78175c7abebb" style="fill:#2CABE3;" d="M417.2,299.1c-1.5,2.3-10.1,6.4-10.1,6.4
		s0.1-9.5,1.7-11.8c1.4-2.4,4.5-3.2,6.9-1.8c2.4,1.4,3.2,4.5,1.8,6.9C417.4,298.9,417.3,299,417.2,299.1z"/>
	<path id="a1f10ad8-828b-4bc0-bd60-82975b18eeea" style="fill:#2CABE3;" d="M416.8,325.4c-2.5,1.2-11.9,0.4-11.9,0.4
		s4.9-8.1,7.4-9.4c2.5-1.3,5.5-0.3,6.8,2.2C420.3,321.2,419.3,324.2,416.8,325.4L416.8,325.4z"/>
	<path id="fdf1c19e-6f92-4eb7-9871-62fccf19d125" style="fill:#2CABE3;" d="M412.1,345.3c-2.2,1.6-11.7,2.4-11.7,2.4
		s3.5-8.8,5.7-10.5c2.2-1.7,5.4-1.2,7,1C414.8,340.4,414.3,343.6,412.1,345.3L412.1,345.3L412.1,345.3z"/>
	<path id="a8202ba4-56ab-4121-af5a-0ba54ac7aedc" style="fill:#2CABE3;" d="M396.5,306c2,1.9,11.3,3.9,11.3,3.9s-2.3-9.2-4.3-11.1
		c-1.9-2-5.1-2.1-7.1-0.3s-2.1,5.1-0.3,7.1L396.5,306L396.5,306z"/>
	<path id="f3ce18b5-bfac-4c84-8dd5-718740f97159" style="fill:#2CABE3;" d="M391.3,329.3c2.5,1.3,11.9,0.4,11.9,0.4
		s-4.9-8.1-7.4-9.4c-2.5-1.3-5.5-0.3-6.8,2.2C387.8,325,388.8,328.1,391.3,329.3L391.3,329.3z"/>
	<path id="bbd7578d-ec72-4c3f-85e3-cffbf458f1da" style="fill:#2CABE3;" d="M389.2,352.6c2.2,1.6,11.7,2.4,11.7,2.4
		s-3.5-8.8-5.7-10.5c-2.2-1.7-5.4-1.2-7,1C386.5,347.8,387,350.9,389.2,352.6L389.2,352.6z"/>
	<path id="e9cf902b-7f52-49b8-80f4-d463695e98e8" style="opacity:0.1;fill:#252223;enable-background:new    ;" d="M144.3,102.1
		h-3.5c1.3,0,2.4-1.1,2.4-2.5c0-1.2-1-2.3-2.2-2.4h-28.2c-1.3,0-2.4,1.1-2.4,2.4c0,1.3,1.1,2.4,2.4,2.4h3.5c-1.4-0.1-2.5,1-2.6,2.3
		s1,2.5,2.3,2.6l0,0c0.1,0,0.2,0,0.2,0h-4.8c-1.3,0-2.4,1.1-2.4,2.4c0,1.3,1,2.3,2.2,2.4h28.3c1.3,0,2.4-1.1,2.5-2.4
		c0-1.3-1-2.3-2.2-2.4h4.6c1.3,0,2.4-1.1,2.5-2.4c0-1.3-1-2.3-2.2-2.4L144.3,102.1L144.3,102.1z"/>
	<path id="e78b2084-8428-4812-9bb6-19e9d877453b" style="opacity:0.1;fill:#252223;enable-background:new    ;" d="M268.1,163h-3.5
		c1.3,0.1,2.5-0.9,2.6-2.2s-0.9-2.5-2.2-2.6c-0.1,0-0.2,0-0.3,0h-28.2c-1.3,0.1-2.4,1.2-2.3,2.6c0.1,1.2,1,2.2,2.3,2.3h3.5
		c-1.3,0-2.4,1.1-2.5,2.4c0,1.3,1,2.3,2.2,2.4h-4.6c-1.3-0.1-2.5,1-2.5,2.3c-0.1,1.3,1,2.5,2.3,2.5l0,0h28.3c1.3,0.1,2.5-1,2.5-2.3
		c0.1-1.3-1-2.5-2.3-2.5h4.6c1.3,0,2.4-1.1,2.5-2.4c0-1.3-1-2.3-2.2-2.4H268.1z"/>
	<path id="bc8824c3-f72b-44a1-9d95-7ae1f3ebf698" style="opacity:0.1;fill:#252223;enable-background:new    ;" d="M479.1,83.5h-3.5
		c1.3,0,2.4-1.1,2.4-2.5c0-1.2-1-2.3-2.2-2.4h-28.2c-1.3,0.1-2.4,1.2-2.3,2.6c0.1,1.2,1,2.2,2.3,2.3h3.4c-1.3,0-2.4,1.1-2.5,2.4
		c0,1.3,1,2.3,2.2,2.4h-4.6c-1.3-0.1-2.5,1-2.5,2.3c-0.1,1.3,1,2.5,2.3,2.5h28.3c1.3,0,2.4-1.1,2.4-2.4c0-1.3-1.1-2.4-2.4-2.4h4.9
		c1.3,0,2.4-1.1,2.5-2.4c0-1.3-1-2.3-2.2-2.4H479.1z"/>
	
		<linearGradient id="a9d4350a-63a9-4566-aec6-b2276f1e3ba6_1_" gradientUnits="userSpaceOnUse" x1="122.7929" y1="-173.7608" x2="124.2329" y2="-173.7608" gradientTransform="matrix(92.63 0 0 186.78 -11217.8994 32701.8672)">
		<stop  offset="0" style="stop-color:#808080;stop-opacity:0.25"/>
		<stop  offset="0.54" style="stop-color:#808080;stop-opacity:0.12"/>
		<stop  offset="1" style="stop-color:#808080;stop-opacity:0.1"/>
	</linearGradient>
	<path id="a9d4350a-63a9-4566-aec6-b2276f1e3ba6" style="fill:url(#a9d4350a-63a9-4566-aec6-b2276f1e3ba6_1_);" d="M252.2,382
		L252.2,382c-1.6,0-3.1-0.1-4.6-0.5c-2.5-0.7-3.8-1.4-3.8-2.2c0.1-2,8.6-3.7,8.7-3.7h0.1c1.7,0,3.8-1.1,6.3-3.2
		c2-1.8,3.8-3.7,5.5-5.8c0.1-2-0.9-7.2-6.5-21.3c-3.4-8.5-6.8-16.1-6.8-16.2l-10.4-17.9l-9.3-23.9c-5.5,9.1-10.2,18.6-14.2,28.4
		c0.3,2.4-1.3,11.3-4,21.7c-2.2,8.6-5.2,18.5-7.1,20.2c-1.6,1.6-2.5,3.6-2.6,5.9c-0.1,1.1-0.1,2.3,0.1,3.4l-0.5-0.2v0.2l-0.4-0.1
		l-1.5,11.9l0,0h-0.1c-2.5-0.3-11.3-1.5-20.4-3c-17.4-2.9-22.5-4.7-23.8-5.7c-0.6-0.5-0.9-1-0.8-1.3c0.2-0.7,1.6-1.2,4.2-1.5
		c2.1-0.2,4.2-0.3,6.3-0.3c1,0,1.7,0,1.8,0c6.6-0.2,13.3-4.3,16.7-6.8l-0.2-0.1l9.9-47.8c-0.2-4.5,0.5-9,2.1-13.1
		c0.7-2,1.6-4,2.6-5.9c3.5-12.6,10-25.1,14.9-33.4l-0.4,0.7l-0.1-2.9l-1.8,2.9l-0.1-2.9l-0.4,0.3c0.1-0.1,0.3-0.3,0.4-0.4v-0.3
		l-0.4,0.3c0.1-0.1,0.2-0.3,0.4-0.4v-0.2l-0.8,0.6c0.3-0.3,0.6-0.6,0.8-1l-1-27.2c-6.2,4.1-10,6.4-11.2,6.7
		c-2.4,0.8-4.7,1.9-6.8,3.3c-1.5,1.8-3.2,3.5-5.1,4.9l0.8,1.7c0.5,1,0.1,2.3-0.9,2.8l0,0l-2.9,1.4l-1.5,0.7
		c-0.3,0.1-0.6,0.2-0.9,0.2c-0.2,0-0.5,0-0.7-0.1c-0.5-0.2-0.9-0.6-1.2-1.1l-1-2.1h-0.1c-1.5,0-3-0.5-4.2-1.4c-1.1-0.6-1.8-1.7-2-3
		c0.1-1.6,1-3.1,2.3-4l-1.7-3.5c-0.5-1,0-2.3,1-2.8l0.6-0.3l0.8-0.4l2-1l0.9-0.4c1-0.5,2.3,0,2.8,1c0,0,0,0,0,0l1.4,2.9
		c0.5-0.1,1.1-0.2,1.6-0.3c1.2-0.2,2.4-0.7,3.5-1.4c0.8-0.5,1.6-0.9,2.4-1.2c5.8-2.3,13.9-11.3,17.1-15l-0.7-0.8l3.1-2.7l-0.7-18.5
		l7.3-17.9c-0.6-0.3-1-0.9-1.1-1.6c-0.3-2.6,3.6-6.8,6-9c-1.2-2.5-2.6-4.9-4.2-7.2c-9-1.9-14.9-10.7-13-19.8c0,0,0,0,0,0
		c0.1-0.4,0.2-0.8,0.3-1.1c-2,0-4.6-0.8-5-3c-0.3-1.7,0.8-3.1,2-4.6c1-1,1.7-2.2,2.2-3.6c0.1-0.6,0.1-1.3,0.1-1.9c0-0.5,0-1.1,0-1.6
		c0.2-1.9,1.6-3.7,4.1-5.5c1.4-1,2.8-1.8,4.3-2.5c4.2-2.1,8.8-3.3,13.6-3.4v-0.1c0-0.2,0.1-0.3,0.3-0.4c0.1-0.1,0.2-0.1,0.3-0.1
		c0,0,0.1,0,0.1,0l5.3,1c0.3,0.1,0.5,0.3,0.5,0.6c0.4,0.5,0.8,1,1,1.6c0.1,0.3,0.3,0.6,0.5,0.9c1.2,2,3.4,2.8,5.7,3.7
		c1.2,0.4,2.5,1,3.6,1.7c1.8,1.1,3.2,2.8,4.1,4.7c0.9,1.9,1.4,4,1.5,6.2c-0.1,4.2-0.8,8.5-2.3,12.5c-0.8,3.5-2.3,6.9-4.3,9.8
		c-1.1,1.4-2.5,2.5-4.1,3.3l-0.6,0.3c0,0,0,0,0,0.1v0.1c1.9,3.8,6.8,5,6.9,5l10.5,5.1c2.6,1.2,4.7,3.2,6.3,5.5
		c5.7,6.9,18.8,24.3,18.6,35c0,1-0.1,1.9-0.3,2.9c0,0-0.6-0.1-1.6-0.3c0.5,6,1.1,16.5,0.2,19.6c-1.4,4.7-1.4,13.8-1.4,13.9
		c0.8,1.8,1.4,3.7,1.9,5.6c0.7,2.9,1.3,7.1,0,10.5c-0.8,2.2-2.5,3.9-4.7,4.8c-0.7,0.3-1.5,0.5-2.4,0.6c-1.1,0-2.1-0.5-2.8-1.3
		c-1.1-1.3-2.4-4.2-2.4-11.1c0-2.6,0.2-5.2,0.5-7.7v-18.5l-2-15.8c-0.3,0.2-0.6,0.4-0.9,0.7c-0.3-0.9-0.6-1.7-1-2.6
		c-0.1,1.4-0.2,2.8-0.3,4.3c-0.1,5.6-0.8,11.2-2.2,16.7c-0.1,0.2-0.1,0.4-0.2,0.6c-0.9,3.3-2.1,9.7-2.4,21.3l0.2,0.1v0.1l0.3,0.1
		c-0.1,0.8-0.3,1.6-0.5,2.3v2.6c0,2.8,0.1,4.7,0.1,4.7v0.5c-0.4,0.2-0.9,0.2-1.4,0.1c-0.2,0.6-0.3,1.1-0.6,1.7l-0.1,0.2
		c-0.6,1.2-1.3,2.3-2.1,3.3l-0.1,0.2l-0.1,0.1l-0.3,0.3l6.3,30.9c-0.1,2.3,0.8,4.4,2.4,6.1c0.8,0.8,1.6,1.6,2.6,2.2
		c4.9,6.5,22.4,54.6,22.6,55.1H287l3.2,10.4h0c-1.1,0.4-6.9,2.3-14,4.1S259.1,382,252.2,382z M218.2,253.8L218.2,253.8l-1.6,2.5
		c0.2-0.3,0.4-0.6,0.5-0.9C217.5,254.8,217.8,254.3,218.2,253.8L218.2,253.8z"/>
	
		<linearGradient id="b980a420-a5c3-44c5-90ee-679339c68611_1_" gradientUnits="userSpaceOnUse" x1="113.799" y1="257.3875" x2="115.249" y2="257.3875" gradientTransform="matrix(0.41 0 0 0.3 162.79 180.4287)">
		<stop  offset="0" style="stop-color:#808080;stop-opacity:0.25"/>
		<stop  offset="0.54" style="stop-color:#808080;stop-opacity:0.12"/>
		<stop  offset="1" style="stop-color:#808080;stop-opacity:0.1"/>
	</linearGradient>
	<path id="b980a420-a5c3-44c5-90ee-679339c68611" style="fill:url(#b980a420-a5c3-44c5-90ee-679339c68611_1_);" d="M211.2,257.4
		l-0.6,0.4C210.8,257.7,211,257.6,211.2,257.4z"/>
	
		<linearGradient id="ea43321e-89d5-4bb6-adf5-4873a2fefa55_1_" gradientUnits="userSpaceOnUse" x1="114.149" y1="257.8708" x2="115.609" y2="257.8708" gradientTransform="matrix(0.41 0 0 0.3 163.12 180.7587)">
		<stop  offset="0" style="stop-color:#808080;stop-opacity:0.25"/>
		<stop  offset="0.54" style="stop-color:#808080;stop-opacity:0.12"/>
		<stop  offset="1" style="stop-color:#808080;stop-opacity:0.1"/>
	</linearGradient>
	<path id="ea43321e-89d5-4bb6-adf5-4873a2fefa55" style="fill:url(#ea43321e-89d5-4bb6-adf5-4873a2fefa55_1_);" d="M211.7,257.9
		l-0.6,0.4C211.3,258.2,211.5,258.1,211.7,257.9z"/>
	
		<linearGradient id="e352da1c-8ad5-4adf-8225-44502a40835a_1_" gradientUnits="userSpaceOnUse" x1="114.149" y1="257.3875" x2="115.609" y2="257.3875" gradientTransform="matrix(0.41 0 0 0.3 163.12 180.4287)">
		<stop  offset="0" style="stop-color:#808080;stop-opacity:0.25"/>
		<stop  offset="0.54" style="stop-color:#808080;stop-opacity:0.12"/>
		<stop  offset="1" style="stop-color:#808080;stop-opacity:0.1"/>
	</linearGradient>
	<path id="e352da1c-8ad5-4adf-8225-44502a40835a" style="fill:url(#e352da1c-8ad5-4adf-8225-44502a40835a_1_);" d="M211.7,257.4
		l-0.6,0.4C211.3,257.7,211.5,257.6,211.7,257.4z"/>
	<path id="bcf24f63-5ea8-4a03-8613-32f7a0112a52" style="fill:#333333;" d="M265.6,360.9c0,0-8.3,11.7-13.8,11.5c0,0-15.4,3-4.8,5.7
		c10.6,2.7,41.5-7.6,41.5-7.6l-3.7-12L265.6,360.9z"/>
	<path id="f728246b-fc66-4e66-9922-0367f4d31fb0" style="fill:#535461;" d="M228.6,279.6l11.7,30.1l10.1,17.5c0,0,13.9,30.9,13,36.9
		l22.1-3.6c0,0-17.2-47.3-22-53.7c0,0-5-3-4.8-8.1l-6.2-30.1c0,0,6-5.8,2.7-13.1c-0.2-0.4-0.4-0.8-0.6-1.1
		c-4.6-7.8-22.1-3.5-22.1-3.5L228.6,279.6z"/>
	<path id="e2c03df4-66b6-477b-bc23-04766f064517" style="opacity:3.000000e-02;enable-background:new    ;" d="M228.6,279.6
		l11.7,30.1l10.1,17.5c0,0,13.9,30.9,13,36.9l22.1-3.6c0,0-17.2-47.3-22-53.7c0,0-5-3-4.8-8.1l-6.2-30.1c0,0,6-5.8,2.7-13.1
		c-0.2-0.4-0.4-0.8-0.6-1.1c-4.6-7.8-22.1-3.5-22.1-3.5L228.6,279.6z"/>
	<g id="f006941d-4ff8-438b-b1ba-614a4f76edf8" style="opacity:0.1;">
		<path id="b05d2639-21c6-4b97-a550-503bc3af5a10" d="M263.5,306.7c0,0-5-3-4.8-8.1l-6.2-30.1c0,0,6-5.8,2.7-13.1
			c-0.2-0.4-0.4-0.8-0.6-1.1c-2.2-3.8-7.5-4.7-12.3-4.7c4.6,0,9.5,1.1,11.6,4.6c0.2,0.4,0.4,0.8,0.6,1.1c3.4,7.3-2.6,13.1-2.6,13.1
			l6.2,30.1c-0.2,5,4.8,8.1,4.8,8.1c4.8,6.4,22,53.7,22,53.7l-21.5,3.4v0.1l22.1-3.6C285.5,360.4,268.3,313.1,263.5,306.7z"/>
	</g>
	<path id="ab29fffc-d14e-4a14-a186-2527e571e930" style="fill:#333333;" d="M188,355.9c0,0-9.2,7.8-18.1,8c0,0-15.6-0.5-11.3,3
		s43.2,8.5,43.2,8.5l1.7-13.4L188,355.9z"/>
	<g id="ab83009f-7b65-4656-9380-c57979afb034" style="opacity:0.1;">
		<path id="e1b47c35-aaa7-4a46-ac79-697537a789f4" d="M221.7,249.1c0,0-15.2,21.4-21.1,42.9c0,0-5.3,9.2-4.6,18.6l-9.6,46.6
			l17.6,6.7c0,0-0.9-5.7,2.5-9s11.5-35.8,10.8-40.9c0,0,11-27.5,22-38.4s16.5-13.3,18.1-22.6C257.5,253.1,231.6,240.6,221.7,249.1z"
			/>
	</g>
	<path id="a68c601b-cebe-4ecf-ba50-26cf310dbfad" style="fill:#535461;" d="M221.2,249.1c0,0-15.2,21.4-21.1,42.9
		c0,0-5.3,9.2-4.6,18.6l-9.6,46.6l17.7,6.6c0,0-0.9-5.7,2.5-9s11.5-35.8,10.8-40.9c0,0,11-27.5,22-38.4s16.5-13.2,18.1-22.6
		C257.1,253.1,231.1,240.6,221.2,249.1z"/>
	<g id="e531d1fb-3ba5-40d9-9f80-27b172c8ac27" style="opacity:0.1;">
		<path id="e95d8dd6-b250-4ff1-a119-fc4f80c523d3" d="M231,245.9c11.4,0.1,25.6,7,25.6,7c-1.6,9.3-7.1,11.8-18.1,22.6
			s-22,38.3-22,38.3c0.7,5-7.3,37.6-10.8,40.9c-3,2.8-2.7,7.5-2.6,8.7l0.7,0.3c0,0-0.9-5.7,2.5-9s11.5-35.8,10.8-40.9
			c0,0,11-27.5,22-38.4s16.5-13.3,18.1-22.6C257.3,252.9,242.5,245.8,231,245.9z"/>
	</g>
	<path id="aff5c307-5067-4041-bcd3-ba1b5d2c8dfe" style="fill:#FDA57D;" d="M210,215.8c0,0-11,13.6-18.4,16.6
		c-0.8,0.3-1.6,0.7-2.4,1.1c-1,0.7-2.2,1.1-3.4,1.3c-0.9,0.1-1.7,0.3-2.6,0.7c-3.9,1.8-12.7,6.6-6.9,10.8c7.3,5.3,17.2-6.9,17.2-6.9
		c2.1-1.3,4.3-2.4,6.7-3.2c2.5-0.6,13.8-8.5,13.8-8.5L210,215.8z"/>
	<path id="ffd75502-2703-47e8-b5f4-682d45157096" style="fill:#4D8AF0;" d="M212.1,213l-4.4,4l6.4,8L212.1,213z"/>
	<g id="ad8319dd-76a9-4029-9593-975d008f1390" style="opacity:0.1;">
		<path id="bc61e7a7-3715-4d11-8961-0d1b5a712ce8" d="M212.1,213l-4.4,4l6.4,8L212.1,213z"/>
	</g>
	<path id="b46eda8a-f18f-494a-b09d-4ebf0e5b11ec" style="fill:#4D8AF0;" d="M223.1,167.3c0,0-10.4,9-6.1,11.5l-7,17.5l2.4,63.8
		l10-16.5l-6.8-35.8c0,0-2-21.4,3.6-26.4l5.4-10.6L223.1,167.3z"/>
	<g id="b19eb960-51c2-41fd-bc6d-5f35a8debb2f" style="opacity:0.1;">
		<path id="aef63125-39d9-4126-a445-24f65d7d1fee" d="M225,167.3c0,0-10.4,9-6.1,11.5l-7,17.4l2.4,63.8l10-16.5l-6.8-35.8
			c0,0-1.9-21.4,3.6-26.4l5.3-10.6L225,167.3z"/>
	</g>
	<path id="f55bc302-3509-4797-ba2f-67f3e759d9de" style="fill:#FDA57D;" d="M215.1,157.9c0,0,8.5,10.3,8.3,16.3s16.1-10.3,16.1-10.3
		s-6.2-7.6-4.6-15.6S215.1,157.9,215.1,157.9z"/>
	<path id="f9dc971f-5683-435c-bcd0-d3a7751e30ee" style="fill:#FDA57D;" d="M263.5,209.8l2.3,18.4v18.1c0,0-3.2,23.4,6.9,19.1
		s2.8-20.4,2.8-20.4s0-9,1.4-13.6s-0.7-24.8-0.7-24.8L263.5,209.8z"/>
	<path id="a00b6d8a-2c63-4bf4-931d-c4b28dbaaf77" style="fill:#F2F2F2;" d="M232,166.4c0,0-6.2,6-9.4,3.9l-4.4,11
		c-2.7,6.7-3.9,13.9-3.6,21.1l1.6,41.4l6.9-0.9l2.3-39.3l3.4-23.9L232,166.4z"/>
	<g id="e755646b-9c31-4ad0-b12c-2c462b18bd75" style="opacity:0.1;">
		<path id="be877beb-5c6d-4289-a75f-77e71c3096de" d="M237.2,160.1c0,0-8.1,5.6-10.4,10.4c0,0-0.2,5.3-2.1,7.6s-3.7,13.8-4.1,27.6
			s-2.5,32.1-2.5,32.1s-3.4,17.9-7.1,19.8c0,0,17-12.9,25.3-8.5s17.7,14.9,20.4,13.3c0,0-0.7-20.1,2.4-30.9c0-0.2,0.1-0.4,0.2-0.6
			c3.2-10.6,1.1-25,4.8-31.2c0-6.6-0.8-13.2-2.1-19.6c-1.1-4.3-4.1-8-8.1-9.9l-10.2-4.9C243.6,165.3,238.1,164.5,237.2,160.1z"/>
	</g>
	<g id="b78efdb2-6e33-401c-9156-8bd74ac68fa9" style="opacity:0.1;">
		<path id="be785c2f-8b24-4f4d-9897-7a0a49e704cc" d="M237.2,160.1c0,0-7.7,6.1-10,10.9c0,0-0.2,5.3-2.1,7.6s-3.7,13.8-4.1,27.6
			s-2.5,32.1-2.5,32.1s-3.4,17.9-7.1,19.7c0,0,17-12.9,25.3-8.5s17.7,14.9,20.4,13.3c0,0-0.7-20.1,2.4-30.9c0-0.2,0.1-0.4,0.2-0.6
			c3.2-10.6,1.1-25,4.8-31.2c0-6.6-0.8-13.2-2.1-19.6c-1.1-4.3-4.1-8-8.1-9.9l-10.2-4.9C244,165.8,238.1,164.5,237.2,160.1z"/>
	</g>
	<path id="fac8e55e-af2b-486a-a2a0-ceff5a629535" style="fill:#4D8AF0;" d="M237.1,160c0,0-7.6,5.7-9.9,10.6c0,0-0.2,5.3-2.1,7.6
		s-3.7,13.8-4.1,27.6s-2.5,32.1-2.5,32.1s-3.4,17.9-7.1,19.8c0,0,17-12.9,25.3-8.5s17.7,14.9,20.4,13.3c0,0-0.7-20.1,2.4-30.9
		c0-0.2,0.1-0.4,0.2-0.6c3.2-10.6,1.1-25,4.8-31.2c0-6.6-0.8-13.2-2.1-19.6c-1.1-4.3-4.1-8-8.1-9.9l-10.2-4.9
		C244,165.3,238.8,164,237.1,160z"/>
	<g id="b3aff1ce-d3ba-42fa-9f01-615e04aee35a" style="opacity:0.1;">
		<path id="b9b1d929-1144-43b6-b9ba-893d62f7760f" d="M258.1,173.4c0,0,23.3,26.5,20.1,39.1c0,0-11.9-2.8-15.2,0.9
			c-1.8-5.4-5.4-10.1-10.1-13.3C245.4,195.4,238.4,164.5,258.1,173.4z"/>
	</g>
	<path id="b5c92fca-096d-4b00-9c2a-342c7625d44b" style="fill:#4D8AF0;" d="M258.1,173c0,0,23.3,26.5,20.1,39.1
		c0,0-11.9-2.8-15.2,0.9c-1.8-5.4-5.4-10.1-10.1-13.3C245.4,194.9,238.4,164,258.1,173z"/>
	<g id="ffbcf4b3-3907-4178-b234-ebe0b76f94be" style="opacity:0.1;">
		<path id="f11133e6-070c-453a-8384-b0219d462d90" d="M235.4,153.5c-0.4-1.9-0.1-2,0.3-4c1.6-8.1-19.8,9.6-19.8,9.6s1.2,1.4,2.7,3.6
			c1.1,0.2,2.2,0.3,3.3,0.3C227.8,163,232.5,158.1,235.4,153.5z"/>
	</g>
	<circle id="af30f318-1a5a-4e7b-b81d-71a7841a8965" style="fill:#FDA57D;" cx="221" cy="145.5" r="16.3"/>
	<g id="e4ff3238-fa8c-4703-8419-a4665cdb021e" style="opacity:0.1;">
		<path id="f9e9bc82-311d-452e-b264-3f74cb9ea9f4" d="M206.4,141.1c-2.4,0.3-5.5-0.5-5.9-2.9c-0.6-3,3.4-5,4.1-8
			c0.2-1.1,0-2.3,0.1-3.4c0.3-2.3,2.1-4.1,4-5.4c6-4.2,13.3-6.1,20.6-5.5c0.9,0,1.8,0.3,2.6,0.8c0.7,0.8,1.2,1.6,1.6,2.6
			c1.9,3,6,3.3,9,5.2c3.5,2.2,5.2,6.5,5.4,10.6c-0.1,4.1-0.8,8.2-2.2,12.1c-0.8,3.4-2.2,6.7-4.2,9.6c-2.2,2.8-5.8,4.7-9.2,3.9
			c1.6-1.1,0.4-3.8-1.3-4.7s-3.8-1.1-5.3-2.3s-1.9-3.4-2.4-5.2c-0.5-2.4-1.6-4.7-3.2-6.6C216.7,138.6,210.6,140.5,206.4,141.1z"/>
	</g>
	<path id="b392dde1-8dcd-4865-8b58-59e6f0b99338" style="fill:#72351C;" d="M206.8,140.9c-2.4,0.3-5.5-0.5-5.9-2.9
		c-0.6-3,3.4-5,4.1-8c0.2-1.1,0-2.3,0.1-3.4c0.3-2.3,2.1-4.1,4-5.4c6-4.2,13.3-6.2,20.6-5.5c0.9,0,1.8,0.3,2.6,0.8
		c0.7,0.8,1.2,1.6,1.6,2.6c1.9,3,6,3.4,9,5.2c3.5,2.2,5.2,6.5,5.4,10.6c-0.1,4.1-0.8,8.2-2.2,12.1c-0.8,3.4-2.2,6.7-4.2,9.6
		c-2.2,2.8-5.8,4.7-9.2,3.9c1.6-1.1,0.4-3.7-1.3-4.7s-3.8-1.1-5.3-2.4s-1.9-3.3-2.4-5.2c-0.5-2.4-1.6-4.7-3.2-6.5
		C217.2,138.4,211,140.3,206.8,140.9z"/>
	<path id="fd9cbbc5-7f33-43f6-91bc-a33ef049bb83" style="fill:#CBDAE3;" d="M230.9,124.3l1.5-7.6c0.1-0.3-0.1-0.6-0.4-0.7l0,0
		l-5.2-1c-0.3-0.1-0.6,0.1-0.7,0.4l0,0l-1.5,7.6l-5,18.7l9.2,1.8L230.9,124.3z"/>
	<g id="ed8595e3-d9c2-471e-b4f2-dd5e394d7603" style="opacity:0.1;">
		<circle id="bd91c989-4c6f-471c-b6fa-e837fb904222" cx="223.2" cy="145.9" r="8"/>
	</g>
	<circle id="e99cc7dc-e4ff-4e87-bda4-7093eb44e622" style="fill:#CBDAE3;" cx="223.2" cy="146.1" r="8"/>
	<circle id="a032681d-1fde-49ca-97a6-81677f3af45d" style="fill:#E9E9E9;" cx="223.2" cy="146.1" r="5.3"/>
	<circle id="f3349f8a-a644-41dd-9abf-78d329f4aee6" style="fill:#F48681;" cx="223.2" cy="146.1" r="1.6"/>
	<path id="f603f8ad-48bd-445d-b7f1-249d5ae506f3" style="opacity:5.000000e-02;enable-background:new    ;" d="M224.7,122.4l6.3,1.2
		l-0.1,0.2l-6.3-1.2L224.7,122.4z"/>
	<path id="f4e7888a-7bd1-40ae-9aef-d2746dec7fd5" style="fill:#CBDAE3;" d="M177.8,232.7L177.8,232.7c1.9-0.9,4.3-0.1,5.2,1.8
		c0,0,0,0,0,0l4.9,10.1c0.9,1.9,0.1,4.3-1.8,5.2l0,0c-1.9,0.9-4.3,0.1-5.2-1.8c0,0,0,0,0,0l-4.8-10.1
		C175.1,236,175.9,233.6,177.8,232.7z"/>
	<g id="aae6aedb-f5c1-449f-8215-5a49bf2bb217" style="opacity:0.1;">
		<path id="bb40eec3-a8a0-438a-bd36-663abcbc1297" d="M177.8,232.7L177.8,232.7c1.9-0.9,4.3-0.1,5.2,1.8c0,0,0,0,0,0l4.9,10.1
			c0.9,1.9,0.1,4.3-1.8,5.2l0,0c-1.9,0.9-4.3,0.1-5.2-1.8c0,0,0,0,0,0l-4.8-10.1C175.1,236,175.9,233.6,177.8,232.7z"/>
	</g>
	<path id="af3e1129-efd5-4681-a350-c6ac39c8d007" style="fill:#CBDAE3;" d="M178.5,232.4L178.5,232.4c2-1,4.4-0.2,5.4,1.8
		c0,0,0,0,0,0l4.8,9.9c1,2,0.1,4.4-1.8,5.3c0,0,0,0,0,0l0,0c-2,1-4.4,0.1-5.3-1.9c0,0,0,0,0,0l-4.8-9.9
		C175.7,235.7,176.5,233.3,178.5,232.4C178.5,232.4,178.5,232.4,178.5,232.4z"/>
	
		<rect id="aa9910a6-2a85-443d-b2ac-9d6788c87fdb" x="179.2" y="232.9" transform="matrix(0.9008 -0.4343 0.4343 0.9008 -86.1916 102.967)" style="fill:#F2F2F2;" width="6.1" height="14.5"/>
	<path id="b3b2e889-37f8-482e-81a1-3febb629a45e" style="fill:#F2F2F2;" d="M186.6,248.8c0.4-0.3,0.5-0.7,0.2-1.1
		c-0.1-0.4-0.4-0.7-0.8-0.6c-0.4,0.1-0.7,0.4-0.6,0.8c0,0.1,0.1,0.3,0.2,0.4C185.7,248.7,186.2,249,186.6,248.8z"/>
</g>
</svg>
