<?xml version="1.0" encoding="utf-8"?>
<!-- Generator: Adobe Illustrator 23.0.0, SVG Export Plug-In . SVG Version: 6.00 Build 0)  -->
<svg version="1.0" id="Layer_1" xmlns="http://www.w3.org/2000/svg" xmlns:xlink="http://www.w3.org/1999/xlink" x="0px" y="0px"
	 viewBox="0 0 500 500" style="enable-background:new 0 0 500 500;" xml:space="preserve">
<title>onboarding</title>
<g id="a3a08c7e-1c12-4e5a-a865-8633faa5b42c">
	<g id="b927d65e-b6c7-41bd-be65-505b425e659e">
		<path id="ae9e0119-3e38-470a-bad5-cef333d6490b" style="opacity:0.1;fill:#2CABE3;enable-background:new    ;" d="M288.8,125.2
			c-30-1-58.6-10.7-85.9-21.3s-54.3-22.3-83.6-28c-18.8-3.6-40.4-4.1-55.5,6c-14.6,9.7-19.3,26.5-21.9,42.1c-1.9,11.7-3,24,2.2,35
			c3.6,7.6,10.1,14,14.5,21.3c15.5,25.4,4.5,56.7-12.3,81.4c-7.9,11.6-17,22.7-23.1,35.1s-8.9,26.5-3.6,39.2s17.9,21.9,31.5,28.5
			c27.7,13.4,60.3,17.3,92.1,19.4c70.4,4.8,141.1,2.7,211.7,0.6c26.1-0.8,52.4-1.6,78-5.6c14.3-2.2,29-5.8,39.4-14.4
			c13.1-10.9,16.4-29.4,7.6-43c-14.8-23-55.6-28.6-66-53.3c-5.7-13.6,0.2-28.6,8.4-41.2c17.7-27,47.5-50.6,49-81.4
			c1.1-21.2-13.2-42.4-35.3-52.4c-23.1-10.5-55.2-9.2-72.3,8.2C346.2,119.2,315.3,126.1,288.8,125.2z"/>
		<path id="a3c02551-d031-4f24-8792-db8516382571" style="fill:#2CABE3;" d="M212.6,381.6l-158.7-0.8l-15.8-37l55.8-4l-9.7-40.5
			l110.3-14.3L88.8,248.2l9.3-2.2L268,273.7l-9.4,63.3l-13.4,34.8L212.6,381.6L212.6,381.6z"/>
		<path id="b0ee73cd-bcfa-487a-bd7e-fc6f7effa312" style="fill:#2CABE3;" d="M56.3,365.3c0,0,9.7-1.6,15.6,5.3c0,0-4.3,3.4-13.5-1.3
			L56.3,365.3z"/>
		<path id="b2a617e6-bfa6-4bc3-8ea3-56ccaef0a42a" style="fill:#2CABE3;" d="M55.3,365.2c0,0-6.2,7.6-3.2,16.2c0,0,5.1-2,5.6-12.4
			L55.3,365.2z"/>
		<path id="b7f8009c-76da-4d26-9f4d-5e64442bfc89" style="fill:#2CABE3;" d="M49.7,352.6c0,0,3.9-7.1,19.5,2.9c0,0-2.1,4.8-9,4.4
			S51.5,356.4,49.7,352.6z"/>
		<path id="b3b424ca-04a5-454a-bc27-07d37d0b3a05" style="fill:#2CABE3;" d="M48.7,352.1c0,0-8.1-0.9-8.9,17.6c0,0,5.1,1.1,8.8-4.8
			S50.8,355.7,48.7,352.1z"/>
		<path id="a2fe9d84-73cd-4c06-8372-1c880ab768c5" style="fill:#2CABE3;" d="M44,337.3c0,0,4.5-12.6,21-3.6c0,0-3.8,11.5-19.3,7.9
			L44,337.3z"/>
		<path id="ba0e20c4-b31a-455e-90f7-acf754fbf712" style="fill:#2CABE3;" d="M39,318.5c0,0,8.6-12.7,23.8-0.9c0,0-5.3,12-22.5,5.5
			L39,318.5z"/>
		<path id="bd693dbb-687b-423f-96ff-394b079634d8" style="fill:#2CABE3;" d="M37.1,300.6c0,0,10-11.7,25,0c0,0-9.5,10.3-25,3V300.6z
			"/>
		<path id="a3842ed5-ffc2-445e-987c-3ed51d7ac2a1" style="fill:#2CABE3;" d="M35.6,283.2c0,0,10.1-12.2,24.5-0.6
			c0,0-11.4,10.8-24.5,3.5L35.6,283.2z"/>
		<path id="a03e13ac-1f1a-4080-8677-a3d6a66ee566" style="fill:#2CABE3;" d="M36.5,267.7c0,0,10.7-15.7,24.1-5.1
			c0,0-11.4,13.5-24.2,8L36.5,267.7z"/>
		<path id="b1e63cc4-9753-46fd-84ef-a8d4cc17becc" style="fill:#2CABE3;" d="M39,249.7c0,0,11.3-15.6,24.4-3.6
			c0,0-13.4,13.5-24.4,6.5V249.7z"/>
		<path id="bce34814-30c4-4ad5-baf8-aca6a08f6446" style="fill:#2CABE3;" d="M42.7,233.6c0,0,13.4-14.6,25-8.8
			c0,0-13.9,15.6-25.6,12.7L42.7,233.6z"/>
		<path id="ae1f8823-5755-40c3-9df7-e6c978947513" style="fill:#2CABE3;" d="M47.4,218.3c0,0,15.4-17.9,24.4-11.9
			c0,0-11.4,13.9-25.5,15.3L47.4,218.3z"/>
		<path id="aa54aec3-3bde-499d-9704-5d42f348183b" style="fill:#2CABE3;" d="M54.1,200.5c0,0,13.5-14.6,23.4-11
			c0,0-11.6,15.2-25.2,15.6L54.1,200.5z"/>
		<path id="a015c302-8209-4cc3-b292-17f6b283a1c5" style="fill:#2CABE3;" d="M60.3,184c0,0,14.9-14,21.4-11.6
			c0,0-10.8,15.6-22.1,14.7L60.3,184z"/>
		<path id="ea60f784-9898-47c3-a9c6-d344e49e8f5f" style="fill:#2CABE3;" d="M66.2,168.6c0,0,12.8-16.8,19.9-15.4
			c0,0-7.8,14.9-19.9,17.1V168.6z"/>
		<path id="e9f73891-9ed9-4510-8353-92a98b0413ac" style="fill:#2CABE3;" d="M72.7,148c0,0,11.4-12.8,17.5-12.8c0,0-9,17.1-18,17
			L72.7,148z"/>
		<path id="b18a140b-effb-475b-8ef0-5d7c5fa21278" style="fill:#2CABE3;" d="M76.5,134.2l11-26.7c0,0,0.5,24.2-12.4,31.7L76.5,134.2
			z"/>
		<path id="fc4c2f07-02b1-4a90-9abb-87d26040303a" style="fill:#2CABE3;" d="M81,104.7c0,0,1.8-22.3,0.7-24.2c0,0,7.8,18.6-0.7,34
			L81,104.7z"/>
		<path id="eeda5ba2-dc82-4f61-bb9c-1d664b9aab65" style="fill:#2CABE3;" d="M43.6,337c0,0-11.4-7-18.8,10.2c0,0,10.1,6.7,20.1-5.8
			L43.6,337z"/>
		<path id="e5592dfa-a4e0-4822-a8ab-874cda105df9" style="fill:#2CABE3;" d="M38.6,317.8c0,0-14-6.4-20.7,11.6c0,0,10.8,7.4,22-7.1
			L38.6,317.8z"/>
		<path id="bbe2e32a-508f-42d5-a79e-c11cf975c328" style="fill:#2CABE3;" d="M36.5,301.7c0,0-10-11.7-25,0c0,0,9.5,10.3,25,3V301.7z
			"/>
		<path id="fbd84c2e-4692-47c6-be68-9e51e83554ac" style="fill:#2CABE3;" d="M35.2,283.2c0,0-10.1-12.2-24.5-0.6
			c0,0,11.4,10.8,24.5,3.5V283.2z"/>
		<path id="a16b349d-f412-45df-b4f6-851b3a52b585" style="fill:#2CABE3;" d="M36.5,268.2c0,0-7.1-17.6-22.5-10
			c0,0,8.4,15.6,21.9,12.9L36.5,268.2z"/>
		<path id="ffef9e99-9709-4972-9c82-13d53e3989f3" style="fill:#2CABE3;" d="M39.9,249.6c0,0-7.1-17.9-22.7-9.6
			c0,0,9.6,16.4,22,12.4L39.9,249.6z"/>
		<path id="a4f0207e-e891-4ffa-b569-2796df16a087" style="fill:#2CABE3;" d="M44.2,233.6c0,0-2.8-19.6-15.8-21.4
			c0,0,2.8,20.7,14,24.9L44.2,233.6z"/>
		<path id="a6b4ea15-d73d-4d54-9407-492a0d8cf382" style="fill:#2CABE3;" d="M47.7,218.3c0,0-1.1-23.6-11.8-24.5
			c0,0,0.4,17.9,10.6,27.8L47.7,218.3z"/>
		<path id="bff41068-e101-457a-8c84-120bb599b7e1" style="fill:#2CABE3;" d="M55.3,199.9c0,0-3.2-19.7-13.5-22.1
			c0,0,1.3,19.1,12.4,26.9L55.3,199.9z"/>
		<path id="bb91abc1-5666-4fa8-9ae0-9381d39e3475" style="fill:#2CABE3;" d="M61.5,184.1c0,0-0.1-20.5-6.4-23.5
			c0,0-3.9,18.6,4.5,26.1L61.5,184.1z"/>
		<path id="e7c4357c-dc50-4530-8900-34395d38e8f4" style="fill:#2CABE3;" d="M66.7,168.4c0,0-0.9-21.1-7.4-24.1
			c0,0-2.2,16.7,6.4,25.4L66.7,168.4z"/>
		<path id="a0fea140-b239-4677-b311-1a65e3f456f9" style="fill:#2CABE3;" d="M73.6,149.7c0,0,0-17.1-4.7-21.2c0,0-4.6,18.8,2.3,24.6
			L73.6,149.7z"/>
		<path id="ee719e4b-d7c2-43f1-b1e6-95421c0b9cf8" style="fill:#2CABE3;" d="M76,133.4l-4.5-28.5c0,0-6.1,23.4,4.7,33.7L76,133.4z"
			/>
		<path id="b3a32566-f55e-42f8-a227-0d7ca8e70de5" style="fill:#2CABE3;" d="M76.9,105c0,0-11.6-19.2-11.3-21.3
			c0,0,1.2,20.1,15.8,30.1L76.9,105z"/>
		<path id="a90b9df0-162d-4861-a63b-7c9bab537d6e" style="fill:#2CABE3;" d="M78.2,99.3c0,0-10.9-27.3-15.8-29.5
			c0,0,15.6,7.9,16.8,28.7L78.2,99.3z"/>
		<path id="bffcff98-da50-4c38-bd0e-aefa23db3268" style="fill:#444053;" d="M72.2,152.3l-0.8-0.2c9.2-30,11.5-49.1,6.5-53.9
			l0.5-0.6C83.8,102.7,81.6,121.6,72.2,152.3z"/>
		<path id="eb3a75c9-bb04-4057-a91c-6fcb14071fcc" style="fill:#444053;" d="M46.8,222.6l-1.1-0.4c1-2.8,2-5.5,3.1-8.3
			c9.6-23.9,17.8-46.2,23-63.3l0.9-0.5c-5.2,17.1-13.2,40.3-22.8,64.2C48.8,217.1,47.8,219.8,46.8,222.6z"/>
		<path id="bd4307dd-1f1a-45d3-b5e4-5d7c023a26c9" style="fill:#444053;" d="M70.1,387.8c-0.1-0.2-15.1-17-25.5-45.6
			c-6.1-16.8-9.5-34.4-10-52.3c-0.7-22.3,4-47.2,12-69.9l0.9,1c-18,50.8-10.9,94.3-1.4,120.5c10.3,28.4,25,45,25.2,45.2L70.1,387.8z
			"/>
		<path id="b606fb80-9088-4405-a1a3-e445786fada1" style="fill:#D5D6DB;" d="M303.1,352.1c0,0-10.5,12.8-2.2,32.2L217,420.7l-8,1.7
			l-3.7-16.2l2.5-20.5v-11.2L303.1,352.1z"/>
		<path id="ad230ba2-5146-47fa-b030-3eaaadec21fc" style="fill:#2CABE3;" d="M38.1,343.8l116.1-21.2l153.9,24.5l-95.6,34.4
			L38.1,343.8z"/>
		<path id="a5010065-2ed0-4c27-9102-9c7933467697" style="fill:#2CABE3;" d="M38.1,343.8l116.1-21.2l153.9,24.5l-95.6,34.4
			L38.1,343.8z"/>
		<path id="ee240075-d599-4fc6-b09a-8b22986d7a2e" style="fill:#2CABE3;" d="M38.1,343.8c0,0-10.9,20.6,1.7,39.6L212,420.7
			c0,0-10.7-16.4,0.5-39.1L38.1,343.8z"/>
		<path id="a2f8ba8a-052d-4b64-ac67-b698ac1381c3" style="opacity:0.1;enable-background:new    ;" d="M38.1,343.8
			c0,0-10.9,20.6,1.7,39.6L212,420.7c0,0-10.7-16.4,0.5-39.1L38.1,343.8z"/>
		<path id="a119c814-df63-43b8-a30e-f08dcd31e063" style="opacity:0.1;enable-background:new    ;" d="M43.3,351
			c0,0-6.2,15.1,0,24.8"/>
		<path id="e6dea8be-f192-46b9-bce5-c95de203a0d6" style="fill:#2CABE3;" d="M212,420.7l96.1-41c0,0,5.4,1.2,1.9,5.1
			s-96.2,39.9-96.2,39.9L39.8,383.4L212,420.7z"/>
		<path id="ff60527e-f069-46b6-9410-b240a0cdbfa4" style="opacity:0.1;enable-background:new    ;" d="M212,420.7l96.1-41
			c0,0,5.4,1.2,1.9,5.1s-96.2,39.9-96.2,39.9L39.8,383.4L212,420.7z"/>
		<path id="a8e40fef-38db-4832-97bf-6be202bda73e" style="opacity:0.1;enable-background:new    ;" d="M204.1,385.7
			c0,0-9.3,11.1,0,27.8"/>
		<path id="f9b0ba25-7be0-4eb1-a762-5b41d641be0f" style="opacity:0.1;enable-background:new    ;" d="M207.4,399.4l41.6-13.9
			l0.1,0.4l-41.6,13.9L207.4,399.4z"/>
		<path id="f4851feb-fda8-4f8e-b319-d8b779cd4172" style="opacity:0.1;enable-background:new    ;" d="M207.4,403.1l49.9-19l0.2,0.4
			l-49.9,19L207.4,403.1z"/>
		<path id="fd4362d8-2770-47a9-9b77-ae0fe70a3eb7" style="opacity:0.1;enable-background:new    ;" d="M207.7,407.5l57.3-23.5
			l0.2,0.4L207.9,408L207.7,407.5z"/>
		<path id="f5bc7525-a58e-42e1-b2f8-f01968c2c2e0" style="opacity:0.1;enable-background:new    ;" d="M208.4,411.4l65-29.3l0.2,0.4
			l-65,29.4L208.4,411.4z"/>
		<path id="f4e8fd82-7cf0-455e-b6ef-dc00cd765069" style="opacity:0.1;enable-background:new    ;" d="M208.9,413.3l71.4-31.2
			l0.2,0.4l-71.4,31.2L208.9,413.3z"/>
		<path id="f7f69419-6142-4351-ba8d-b1bcac17e2f1" style="opacity:0.1;enable-background:new    ;" d="M210,416.5l85.6-37l0.2,0.4
			l-85.6,37L210,416.5z"/>
		<path id="f043556f-21a3-4510-985b-775a3ff418ba" style="opacity:0.3;fill:#FFFFFF;enable-background:new    ;" d="M81.3,346.1
			l81.6-17.2l49.7,9.5L145.7,360L81.3,346.1z"/>
		<path id="fd798045-9d6b-4463-afcb-6006815fdc2e" style="fill:#2CABE3;" d="M308.2,347.2c0,0,4.2,1.7,1.7,4.3s-97.3,30.1-97.3,30.1
			L308.2,347.2z"/>
		<path id="bc4b8507-ab0a-4aee-9197-34d90d610312" style="fill:#D5D6DB;" d="M349.2,307.5c0,0-10.5,12.8-2.2,32.2l-83.9,36.4l-8,1.7
			l-3.7-16.2l2.5-20.5v-11.2L349.2,307.5z"/>
		<path id="f3403e26-9db1-48c6-b45c-8f97e477b2f9" style="fill:#3A3768;" d="M84.2,299.2l116.1-21.2l153.9,24.5L258.6,337
			L84.2,299.2z"/>
		<path id="adca01d6-f251-49c3-a16c-7d5972128a69" style="fill:#3A3768;" d="M84.2,299.2c0,0-10.9,20.6,1.7,39.6L258,376.1
			c0,0-10.7-16.4,0.6-39.1L84.2,299.2z"/>
		<path id="ad2c44c3-5775-4f71-8b61-3e0745e6a10a" style="opacity:0.1;enable-background:new    ;" d="M84.2,299.2
			c0,0-10.9,20.6,1.7,39.6L258,376.1c0,0-10.7-16.4,0.6-39.1l-54.4-11.8L84.2,299.2z"/>
		<path id="f2f3eff6-970c-4cb2-a653-3d0e95d6cf3e" style="opacity:0.1;enable-background:new    ;" d="M89.3,306.4
			c0,0-6.2,15.1,0,24.8"/>
		<path id="ac0c6a7c-b58e-4711-a4df-13f149a679c5" style="fill:#3A3768;" d="M258.1,376.1l96.2-41c0,0,5.4,1.2,1.9,5.1
			s-96.2,39.9-96.2,39.9L85.8,338.8L258.1,376.1z"/>
		<path id="be9ab4ab-54f9-4db5-aac3-17bff198b98e" style="opacity:0.1;enable-background:new    ;" d="M258.1,376.1l96.2-41
			c0,0,5.4,1.2,1.9,5.1s-96.2,39.9-96.2,39.9L85.8,338.8L258.1,376.1z"/>
		<path id="f844c90c-3d02-4f5b-93ff-9a9c148005e1" style="opacity:0.1;enable-background:new    ;" d="M250.2,341.1
			c0,0-9.3,11.1,0,27.8"/>
		<path id="ab6155fd-80cb-41c3-92c1-3f8f09266235" style="opacity:0.1;enable-background:new    ;" d="M253.5,354.8l41.6-13.8
			l0.1,0.4l-41.6,13.9L253.5,354.8z"/>
		<path id="aecf11ff-dba9-407b-a37a-45cf0b46e070" style="opacity:0.1;enable-background:new    ;" d="M253.5,358.6l49.9-19l0.2,0.4
			l-49.9,19L253.5,358.6z"/>
		<path id="f40418a6-3fb3-40bc-b5d9-dab24c06c297" style="opacity:0.1;enable-background:new    ;" d="M253.7,363l57.3-23.5l0.2,0.4
			l-57.3,23.5L253.7,363z"/>
		<path id="a44f2e3c-c5a6-42db-8ba1-cc02a481ebd1" style="opacity:0.1;enable-background:new    ;" d="M254.4,366.8l65-29.3l0.2,0.4
			l-65,29.3L254.4,366.8z"/>
		<path id="e8dbfdd6-365c-4268-9a83-0a588b84b22b" style="opacity:0.1;enable-background:new    ;" d="M254.9,368.7l71.4-31.2
			l0.2,0.4l-71.4,31.2L254.9,368.7z"/>
		<path id="b5376a7d-93e9-4622-943b-b05a0047189d" style="opacity:0.1;enable-background:new    ;" d="M256,371.9l85.6-37l0.2,0.4
			l-85.6,37L256,371.9z"/>
		<path id="e1de3bf5-7880-4813-9f9d-f01b3e7a52b9" style="opacity:0.45;fill:#FFFFFF;enable-background:new    ;" d="M127.3,301.5
			l81.6-17.1l49.7,9.5l-66.9,21.5L127.3,301.5z"/>
		<path id="b87df593-5f3b-49b7-ba1a-c46c312d4a84" style="fill:#3A3768;" d="M354.2,302.6c0,0,4.2,1.7,1.7,4.3S258.6,337,258.6,337
			L354.2,302.6z"/>
		<path id="ec412cff-0f67-4f21-ac16-7003b2254600" style="fill:#D5D6DB;" d="M353.5,256.5c0,0-10.5,23-2.2,42.4l-83.9,26.2l-8,1.7
			l-3.7-16.2l2.5-20.5v-11.2L353.5,256.5z"/>
		<path id="f3344d1f-ffe4-4fa2-990c-fbffd4da0035" style="fill:#2CABE3;" d="M88.6,248.2l116.1-21.2l153.9,24.5L263,286L88.6,248.2z
			"/>
		<path id="b58937fc-2834-4d10-a4ee-d82d16ab3e57" style="fill:#2CABE3;" d="M88.6,248.2c0,0-10.9,20.6,1.6,39.6l172.2,37.3
			c0,0-10.7-16.4,0.6-39.1L88.6,248.2z"/>
		<path id="acb47a21-1d3c-452f-8ee9-3dc5f8aff941" style="opacity:0.1;enable-background:new    ;" d="M88.6,248.2
			c0,0-10.9,20.6,1.6,39.6l172.2,37.3c0,0-10.7-16.4,0.6-39.1L88.6,248.2z"/>
		<path id="b8bd740e-1971-4bf1-8776-233769dd83ba" style="opacity:0.1;enable-background:new    ;" d="M93.7,255.4
			c0,0-6.2,15.1,0,24.8"/>
		<path id="f4ce1f5b-c06c-4575-917c-a4046705f6ea" style="fill:#2CABE3;" d="M262.4,325.1l96.1-30.8c0,0,5.4,1.2,1.9,5.1
			s-96.2,29.7-96.2,29.7L90.2,287.8L262.4,325.1z"/>
		<path id="b4d7e5a8-3655-4d59-841f-7476887a86e2" style="opacity:0.1;enable-background:new    ;" d="M262.4,325.1l96.1-30.8
			c0,0,5.4,1.2,1.9,5.1s-96.2,29.7-96.2,29.7L90.2,287.8L262.4,325.1z"/>
		<path id="ab7517ee-89bf-4753-b105-d324e07f02aa" style="opacity:0.1;enable-background:new    ;" d="M254.6,290.1
			c0,0-9.3,11.1,0,27.8"/>
		<path id="edfc2586-047c-43c2-bedd-13d3f1e2554a" style="opacity:0.1;enable-background:new    ;" d="M257.9,303.8l41.6-13.9
			l0.1,0.4L258,304.3L257.9,303.8z"/>
		<path id="a175185b-7cf9-4c54-99ec-acaca0f8609a" style="opacity:0.1;enable-background:new    ;" d="M257.9,307.5l49.9-19l0.2,0.4
			l-50,19L257.9,307.5z"/>
		<path id="a2de1007-6ace-40bc-aa02-c1c9e3907bf0" style="opacity:0.1;enable-background:new    ;" d="M258.1,311.9l57.3-23.5
			l0.2,0.4l-57.3,23.5L258.1,311.9z"/>
		<path id="bd0ac638-4e47-42c0-9a09-2153b6e0f7a5" style="opacity:0.1;enable-background:new    ;" d="M258.8,315.8l65-29.4l0.2,0.4
			L259,316.2L258.8,315.8z"/>
		<path id="fac79fad-a183-4828-a9d3-61f157ec0e5a" style="opacity:0.1;enable-background:new    ;" d="M259.3,317.7l71.4-31.2
			l0.2,0.4l-71.4,31.2L259.3,317.7z"/>
		<path id="eb6ee1e4-8739-4adf-9511-c7ab78719c34" style="opacity:0.1;enable-background:new    ;" d="M260.4,320.9l85.6-37l0.2,0.4
			l-85.6,37L260.4,320.9z"/>
		<path id="aff068b1-fc24-41c2-b561-316c04e4c3e1" style="opacity:0.3;fill:#FFFFFF;enable-background:new    ;" d="M131.7,250.5
			l81.6-17.1l49.7,9.5l-66.9,21.6L131.7,250.5z"/>
		<path id="a3f54c8c-8bbb-4f18-ab87-8a13d9b7e849" style="fill:#2CABE3;" d="M358.6,251.6c0,0,4.2,1.7,1.7,4.3
			C357.8,258.5,263,286,263,286L358.6,251.6z"/>
		<path id="b7b9f1f2-8f82-4006-b35f-ad1de6cdea79" style="fill:#2CABE3;" d="M154.6,110.8c0,0-17.6-1.1-15.6,11.3
			c-0.2,1.3,0.4,2.6,1.6,3.2c0,0,0-0.9,1.8-0.6c0.6,0.1,1.3,0.1,1.9,0.1c0.9-0.1,1.7-0.4,2.3-1l0,0c0,0,4.9-2,6.9-10.2
			c0,0,1.4-1.8,1.4-2.2l-3,1.3c0.6,1.2,0.6,2.6,0.2,3.9c0,0-0.1-3.9-0.7-3.8c-0.1,0-1.6,0.8-1.6,0.8s1.8,3.7,0.4,6.5
			c0,0,0.5-4.6-1-6.2l-2.1,1.2c0,0,2.1,3.9,0.7,7c0,0,0.4-4.8-1.1-6.7l-1.9,1.5c0,0,1.9,3.8,0.8,6.4c0,0-0.1-5.6-1.2-6.1
			c-0.7,0.6-1.4,1.3-1.9,2.1c0,0,1.3,2.8,0.5,4.2c0,0-0.5-3.8-0.9-3.8c-0.9,1.3-1.5,2.7-1.8,4.2c0.1-1.6,0.6-3.1,1.4-4.4
			c-1,0.2-1.8,0.6-2.5,1.3c0,0,0.3-1.8,2.9-1.9c0.5-0.7,1.1-1.4,1.7-2c-1.5-0.1-2.9,0-4.3,0.5c0,0,1.4-1.7,4.8-0.9l1.9-1.5
			c-1.7-0.3-3.3-0.3-5,0c0,0,1.7-1.5,5.5-0.4l2.1-1.2c-1.6-0.3-3.2-0.5-4.8-0.4c1.7-0.6,3.7-0.6,5.4,0.1l1.4-0.7
			c0,0-2.2-0.4-2.8-0.5s-0.7-0.3-0.7-0.3c1.4-0.2,2.8-0.1,4.1,0.5C152.6,111.8,153.6,111.3,154.6,110.8z"/>
		<path id="f4b85436-aba5-4ea5-87ce-34957b43fde5" style="opacity:0.1;fill:#2CABE3;enable-background:new    ;" d="M402.5,161.6
			c0,0-17.6-1.1-15.6,11.3c-0.2,1.3,0.4,2.6,1.6,3.2c0,0,0-0.9,1.8-0.6c0.6,0.1,1.3,0.1,1.9,0.1c0.9-0.1,1.7-0.4,2.3-1l0,0
			c0,0,5-2.1,6.9-10.1c0,0,1.4-1.8,1.4-2.2l-3,1.3c0.6,1.2,0.6,2.6,0.2,3.9c0,0-0.1-3.9-0.7-3.8c-0.1,0-1.5,0.7-1.5,0.7
			s1.8,3.8,0.4,6.5c0,0,0.5-4.6-1-6.2l-2.1,1.2c0,0,2,3.9,0.7,7c0,0,0.4-4.8-1.1-6.7l-1.9,1.5c0,0,1.9,3.8,0.8,6.4
			c0,0-0.1-5.6-1.2-6c-0.7,0.6-1.4,1.3-1.9,2.1c0,0,1.3,2.8,0.5,4.2c0,0-0.5-3.8-0.9-3.8c-0.9,1.3-1.5,2.7-1.8,4.2
			c0.1-1.6,0.6-3.1,1.4-4.4c-1,0.2-1.8,0.6-2.5,1.3c0,0,0.3-1.8,2.9-1.9c0.5-0.7,1.1-1.4,1.7-2c-1.4-0.1-2.9,0-4.3,0.5
			c0,0,1.4-1.6,4.8-0.9l1.9-1.5c-1.7-0.2-3.3-0.2-5,0.1c0,0,1.7-1.5,5.5-0.4l2-1.2c-1.6-0.4-3.2-0.5-4.8-0.4
			c1.7-0.7,3.7-0.6,5.4,0.1l1.5-0.7c0,0-2.2-0.4-2.8-0.5s-0.7-0.2-0.7-0.2c1.4-0.2,2.8-0.1,4.1,0.5
			C400.4,162.6,401.5,162.2,402.5,161.6z"/>
		<path id="a467ece6-822f-42b9-a14f-6c06245eb27d" style="opacity:0.1;fill:#2CABE3;enable-background:new    ;" d="M184.3,187.2
			c0,0-7.7-15.9-17.4-8.1c-1.2,0.4-2,1.6-2,2.9c0,0,0.8-0.4,1.4,1.3c0.2,0.6,0.5,1.2,0.9,1.7c0.5,0.7,1.2,1.3,2,1.6l0,0
			c0,0,4.2,3.3,12.2,1.1c0.9,0.2,1.7,0.2,2.6,0.1l-2.6-2c-0.8,1.1-2,1.8-3.3,2.1c0,0,3.3-2,3-2.4c-0.1-0.1-1.4-1-1.4-1
			s-2.4,3.4-5.4,3.5c0,0,4.3-1.8,4.9-3.9l-2.1-1.2c0,0-2.4,3.7-5.8,4c0,0,4.4-2,5.3-4.2l-2.2-0.9c0,0-2.4,3.5-5.3,3.8
			c0,0,4.8-2.9,4.7-4c-0.9-0.3-1.8-0.6-2.7-0.7c0,0-1.8,2.5-3.4,2.5c0,0,3-2.3,2.8-2.6c-1.5-0.1-3.1,0-4.5,0.5c1.4-0.7,3-1,4.6-0.9
			c-0.6-0.7-1.4-1.3-2.4-1.6c0,0,1.7-0.6,3.1,1.6c0.9,0.1,1.8,0.2,2.6,0.5c-0.6-1.3-1.5-2.5-2.5-3.5c0,0,2.1,0.4,3.1,3.7l2.2,0.9
			c-0.6-1.6-1.4-3-2.5-4.3c0,0,2.1,0.8,3,4.6l2.1,1.2c-0.5-1.5-1.1-3-2-4.4c1.4,1.2,2.3,2.9,2.6,4.7l1.3,0.9c0,0-0.7-2.1-0.9-2.7
			s-0.1-0.7-0.1-0.7c0.9,1.1,1.4,2.4,1.6,3.8C182.4,185.9,183.3,186.6,184.3,187.2z"/>
		<path id="ec158f67-4fd4-4be5-9ce3-5ad7e3b240e9" style="opacity:0.1;fill:#2CABE3;enable-background:new    ;" d="M362.2,139.1
			c0,0-7.7-15.9-17.5-8.1c-1.2,0.4-2,1.6-2,2.9c0,0,0.8-0.4,1.4,1.3c0.2,0.6,0.5,1.2,0.8,1.7c0.5,0.7,1.2,1.3,2,1.6l0,0
			c0,0,4.2,3.3,12.2,1.1c0.9,0.2,1.7,0.2,2.6,0.1l-2.5-2c-0.8,1.1-2,1.9-3.3,2.1c0,0,3.3-2,3-2.4c-0.1-0.1-1.4-1-1.4-1
			s-2.4,3.4-5.4,3.5c0,0,4.3-1.8,4.9-3.9l-2.1-1.2c0,0-2.4,3.7-5.8,4c0,0,4.4-2,5.3-4.2l-2.2-0.9c0,0-2.4,3.5-5.2,3.8
			c0,0,4.8-2.9,4.7-4c-0.9-0.3-1.8-0.6-2.7-0.7c0,0-1.8,2.5-3.5,2.5c0,0,3-2.3,2.9-2.6c-1.5-0.1-3.1,0-4.5,0.5c1.4-0.7,3-1,4.6-0.9
			c-0.6-0.7-1.4-1.3-2.4-1.6c0,0,1.7-0.6,3.1,1.6c0.9,0.1,1.8,0.3,2.6,0.5c-0.6-1.3-1.5-2.5-2.5-3.5c0,0,2.1,0.4,3.1,3.7l2.3,0.9
			c-0.6-1.6-1.4-3-2.5-4.4c0,0,2.1,0.8,3,4.6l2.1,1.2c-0.5-1.5-1.1-3-2-4.4c1.4,1.2,2.3,2.9,2.5,4.7l1.3,1c0,0-0.7-2.1-0.9-2.7
			s-0.1-0.7-0.1-0.7c0.9,1.1,1.4,2.4,1.6,3.8C360.4,137.9,361.3,138.6,362.2,139.1z"/>
		<path id="aceede56-9cab-436e-be0e-83da88b61048" style="opacity:0.1;fill:#2CABE3;enable-background:new    ;" d="M386.8,217.9
			c0,0-7.7-15.9-17.5-8.1c-1.2,0.4-2,1.6-2,2.9c0,0,0.8-0.4,1.4,1.3c0.2,0.6,0.5,1.2,0.9,1.7c0.5,0.7,1.2,1.3,2,1.6l0,0
			c0,0,4.2,3.3,12.2,1.1c0,0,2.2,0.4,2.6,0.1l-2.6-2c-0.8,1.1-2,1.9-3.3,2.1c0,0,3.3-2,3-2.4c-0.1-0.1-1.4-1-1.4-1s-2.4,3.4-5.4,3.5
			c0,0,4.3-1.8,4.9-3.9l-2.1-1.2c0,0-2.4,3.7-5.8,4c0,0,4.4-2,5.3-4.2l-2.2-0.9c0,0-2.4,3.5-5.2,3.8c0,0,4.8-2.9,4.7-4
			c-0.9-0.3-1.8-0.6-2.7-0.7c0,0-1.8,2.5-3.4,2.5c0,0,3-2.3,2.9-2.6c-1.5-0.1-3.1,0-4.5,0.5c1.4-0.7,3-1,4.6-0.9
			c-0.6-0.7-1.4-1.3-2.4-1.6c0,0,1.6-0.6,3.1,1.6c0.9,0.1,1.8,0.2,2.6,0.5c-0.6-1.3-1.5-2.5-2.5-3.5c0,0,2.1,0.4,3.1,3.7l2.3,0.9
			c-0.6-1.6-1.4-3-2.5-4.3c0,0,2.1,0.8,3,4.6l2.1,1.2c-0.5-1.5-1.2-3-2-4.4c1.4,1.2,2.3,2.9,2.5,4.7l1.3,0.9c0,0-0.7-2.1-0.9-2.7
			s-0.1-0.7-0.1-0.7c0.9,1.1,1.4,2.4,1.6,3.8C384.9,216.6,385.8,217.3,386.8,217.9z"/>
		
			<ellipse id="a9a07934-b130-434c-b001-1ddd515bbf54" style="opacity:0.1;fill:#2CABE3;enable-background:new    ;" cx="104.3" cy="423.8" rx="10.7" ry="1.2"/>
		
			<ellipse id="ed179dea-28ab-48b5-89f6-3c807c8f7567" style="opacity:0.1;fill:#2CABE3;enable-background:new    ;" cx="34.5" cy="403.6" rx="10.7" ry="1.2"/>
		
			<ellipse id="f922a335-cef7-4e8a-9fec-ae9475d60421" style="opacity:0.1;fill:#2CABE3;enable-background:new    ;" cx="157.6" cy="437.3" rx="10.7" ry="1.2"/>
		
			<ellipse id="bce567c3-85e1-45d3-bc19-21fe4e8aaeeb" style="opacity:0.1;fill:#2CABE3;enable-background:new    ;" cx="430.5" cy="408" rx="10.7" ry="1.2"/>
		
			<ellipse id="edc011e8-c37c-4f4b-9e4f-6dd6fb787657" style="opacity:0.1;fill:#2CABE3;enable-background:new    ;" cx="341.8" cy="402.2" rx="10.7" ry="1.2"/>
		
			<ellipse id="e142062e-20d7-488e-accd-d7a6a5a07f48" style="opacity:0.1;fill:#2CABE3;enable-background:new    ;" cx="284.5" cy="429.4" rx="12.6" ry="2.2"/>
		<path id="bf9e7d68-d4c1-4d67-afaf-7c204b82c300" style="fill:#2CABE3;" d="M290.1,407.6c0,0-17.5,9.1-8.5,19.8
			c0.5,1.4,1.9,2.2,3.3,2.1c0,0-0.5-0.9,1.4-1.6c0.7-0.3,1.3-0.6,1.9-1c0.8-0.6,1.4-1.3,1.7-2.3l0,0c0,0,3.6-4.8,0.8-13.7
			c0.2-1,0.2-2,0-2.9l-2.1,2.9c1.3,0.9,2.1,2.2,2.5,3.6c0,0-2.3-3.6-2.8-3.3c-0.1,0.1-1.1,1.6-1.1,1.6s3.8,2.6,4.1,6
			c0,0-2.1-4.7-4.5-5.4l-1.3,2.4c0,0,4.2,2.5,4.6,6.4c0,0-2.4-4.9-4.9-5.8l-1,2.5c0,0,4,2.6,4.4,5.7c0,0-3.4-5.3-4.6-5.1
			c-0.3,1-0.6,2-0.6,3.1c0,0,2.8,1.9,2.9,3.8c0,0-2.6-3.3-3-3.1c-0.1,1.7,0.1,3.4,0.6,5.1c-0.8-1.6-1.2-3.3-1.2-5.1
			c-0.8,0.7-1.4,1.7-1.7,2.7c0,0-0.8-1.8,1.7-3.5c0.1-1,0.2-2,0.5-2.9c-1.5,0.7-2.8,1.7-3.8,2.9c0,0,0.4-2.4,4.1-3.6l0.9-2.5
			c-1.7,0.7-3.4,1.7-4.8,2.9c0,0,0.8-2.4,5.1-3.5l1.3-2.3c-1.7,0.6-3.3,1.4-4.8,2.3c0,0,1.2-2,5.2-3l1-1.5c0,0-2.4,0.8-3,1.1
			s-0.8,0.1-0.8,0.1c1.2-1,2.7-1.7,4.2-1.9C288.7,409.8,289.5,408.7,290.1,407.6z"/>
		
			<linearGradient id="f879fd61-e29b-4e17-921a-3324b479c5bf_1_" gradientUnits="userSpaceOnUse" x1="-907.5421" y1="-173.2153" x2="-907.5421" y2="-174.5853" gradientTransform="matrix(115.9 0 0 170.25 105448.3125 29785.2168)">
			<stop  offset="0" style="stop-color:#808080;stop-opacity:0.25"/>
			<stop  offset="0.54" style="stop-color:#808080;stop-opacity:0.12"/>
			<stop  offset="1" style="stop-color:#808080;stop-opacity:0.1"/>
		</linearGradient>
		<path id="f879fd61-e29b-4e17-921a-3324b479c5bf" style="fill:url(#f879fd61-e29b-4e17-921a-3324b479c5bf_1_);" d="M218.2,294.1
			L218.2,294.1c-1-0.1-2-0.6-2.8-1.4c0-0.1,1.6-14.9,1.1-16.8s3.1-5,3.2-5.1c-1.3-0.1-2.5-0.2-3.8-0.2h-0.5
			c-3.4-0.5-6.7-1.4-9.9-2.8c-3.6-1.4-7.7-3.2-8.4-4.4c-1.1-1.5-2.4-2.8-3.9-3.9c0,0-0.6-0.1-1.7-1.6c-2.2-3.3-4-6.8-5.3-10.5
			c-4-9.8,2.5-13.3,7.3-15.9c1-0.5,1.9-1,2.6-1.5c1.5-0.8,3.2-1.1,4.8-1c6.3,0,15.6,2.7,18.9,4.1c1.6,0.6,3.2,1,4.9,1.1
			c0.2-0.5,0.5-0.9,0.8-1.3c-0.4,0-0.7-0.1-1-0.3c-0.6-0.4-0.9-1.5-0.6-3.4c-1.5-0.2-3-0.8-4.2-1.7c-3-1.3-3.3-5.7-3.5-8.9
			c0-1-0.1-2-0.4-3c-0.8-2.2-1.7-18.5-1.7-18.7s-0.4-11.7-1.2-14s-1.3-13.1-1.4-14.4l0,0V168l0.4-7.3l-0.4-5h0.1l-0.1-0.9h0.8v-0.3
			l0,0c0.4-0.5,4.5-4.6,9.2-8.8c-2-2-3.4-4.5-4.1-7.3c-0.5-2.9-0.3-5.8,0.6-8.6c1-2.9,2.2-5.7,3.7-8.4c2.6-5.2,5.3-10.5,4.6-16.1
			c-0.3-2-0.9-4-1.6-5.9c-1-3-2.1-6-1.5-9.1c0.7-2.5,1.9-4.9,3.6-6.9c1.1-1.6,2.3-3.1,3.6-4.4c0.5-0.5,1.1-1.1,1.7-1.5
			c1.6-1.1,3.4-1.9,5.2-2.6c2.1-0.7,4.1-1.8,5.9-3.1l0.1-0.1l0.2-0.3c0.7-0.9,1.4-1.9,1.9-3c0.5-1,1.1-2,1.8-2.9
			c0.3-0.3,0.5-0.6,0.8-0.8c2.3-2.2,5.4-3.3,8.6-3.1c1,0,2.1,0.1,3.1,0.3c4.1,0.8,8,2.5,11.3,5c3.3,2.5,6.2,5.5,8.6,8.8
			c0.7,0.9,1.2,1.9,1.5,2.9c2.3,0.3,4.5,0.7,6.7,1.2c0.9,0.1,1.8,0.5,2.5,1c0.7,0.7,1.2,1.6,1.5,2.7c0.8,2.8,1.1,5.7,0.9,8.5
			c0.1-0.9,0.1-1.7,0.2-2.5c0,4.7-0.6,9.4-1.6,14c-0.9,3.9-1.4,7.9-1.6,11.9v-2c0-0.2,0-0.3,0-0.4s0-0.3,0-0.5
			c-0.1,0.9-0.2,2-0.2,3.1c0,4.6,0.5,9.1,1.4,13.6c0.4,2.3,0.8,4.7,1,7l3.5,1.6l0,0l5.4,2.4c7.2,3.2,7.4,11.7,7.4,13.4v0.5
			c0,0.1,0,0.3,0,0.6c0.1,1.6,0.4,5.8,0.4,9.2c0,0.9,0,1.7-0.1,2.4l0.1,1v0.2c-0.2,3-0.7,12.8-1.4,14.8c-0.8,2.3-1.2,13.9-1.2,14
			s0,0.4-0.1,1.1v1.6h-0.1c-0.3,4.2-0.9,14.3-1.5,15.9c-0.2,1-0.4,2-0.4,3c-0.2,3.2-0.5,7.6-3.5,9c-1.4,1.1-3.1,1.7-4.9,1.8
			c-0.6,0-1.2-0.1-1.8-0.3c-0.1,1.1-0.1,2.1,0,3.2c0.1,0.8,0.1,1.4-0.7,1.6l0.4,0.4c7.3-1,14.6-2.3,21.8-4c2.7-0.7,5.5-1,8.3-1
			c3.9-0.1,7.7,0.5,11.4,1.8c3.9,1.4,6.3,3.5,7.3,6.1c1.3,4.2,1.6,8.7,0.7,13c-0.4,2.8-1.2,5.5-2.6,8c-1.2,1.1-2.4,2.1-3.8,3
			c-1.1,0.6-2.1,1.4-3,2.3c-0.5,1-6.4,3.7-9.5,4.2c-0.8,0.1-1.9,0.3-3,0.5c4.2,0.6,14.2,2.9,17.5,10.8c1.3,3.1,1.3,5.9,0.2,8
			c-1.4,2.2-3.6,3.7-6.1,4.3h-0.8c-1.3-0.1-5.6-0.2-9.1-0.2c-1.5,0-3,0-4.6,0.2c-2.9,0.2-5.8,0.3-8.7,0.2c-2.4,0-5.4,0-8.7,0l-5.2,0
			l0.2-0.1l-7.3-0.1l1.6-0.3l-3.4-0.1c-0.5,0.6-1.2,1.1-1.9,1.4c-0.6,0.2-1.3,0.3-2,0.2c-5.9,0-19.4-3.8-19.9-4
			c-1.3-0.4-4-1.3-8-2.9c-1.6,1.3-3.5,2.1-5.6,2.3h-0.4c-0.7,0-1.3,0-2,0c-0.9,0-1.7,0-2.6,0.1l-14.6,2.1c-1.4,0.7-2.7,1.5-3.9,2.5
			c-0.8,0.7-1.8,1.1-2.8,1.1c-0.8,0-1.6-0.4-2.1-1.1l-0.1-0.1C220.1,293.3,219.3,294.1,218.2,294.1z M255.3,259.3l1.6,1.1l0.6-0.6
			l0.3-0.1l0.5-0.2L255.3,259.3z"/>
		<path id="f865effc-977f-463b-be2e-5e478ccb2f30" style="fill:#BE6F72;" d="M288,210.5c0,0,7.1,18.5,11.1,16.7s2.9-9.7,3.7-11.9
			s1.6-18.6,1.6-18.6s0.4-11.6,1.2-13.9c0.7-2.1,1.3-13,1.4-14.7v-0.2l-0.8-13.4l-4.3-1.1l-10,3.7l-1.5,7.9l-0.5,3.1l-0.2,1.3
			L288,210.5z"/>
		<path id="f86ebcef-ea1f-41af-9b24-1c5a1cf48e9a" style="opacity:0.1;enable-background:new    ;" d="M290.3,207.4
			c0,0,6.8,5.5,8.8,6s3.3,4.8,3.3,4.8"/>
		<path id="bcaf83c8-4f33-4935-86bb-f3c8aab639e4" style="fill:#BE6F72;" d="M232.5,211.4c0,0-7.1,18.5-11.1,16.6s-2.9-9.7-3.7-11.9
			s-1.6-18.6-1.6-18.6s-0.4-11.6-1.2-13.9c-0.7-2.1-1.3-13-1.4-14.7v-0.2l0.8-13.4l4.3-1.1l10.1,3.7l1.4,8l0.6,3.1l0.2,1.3
			L232.5,211.4z"/>
		<rect id="bdc9ec0e-f3bb-412e-9971-8b1ea9e5ae8e" x="262.9" y="112.1" style="fill:#3E373A;" width="15.8" height="24.7"/>
		
			<rect id="bd8a5fe0-a54a-48f9-8b23-6f0fc366dfd0" x="262.9" y="112.1" style="opacity:0.1;enable-background:new    ;" width="15.8" height="24.7"/>
		<path id="a8b1a7f8-a3d3-4256-98be-8420a048f1da" style="fill:#4B4B5B;" d="M229.7,229.8c0,0-5.4,6-3.4,7s15,21.3,15,21.3
			s42.7,5.3,50.7-2.6s7.9-22,7.9-22s-6.5,1.4-7.2,0.6s-4.6-4.4-4.6-4.4S233.4,226.5,229.7,229.8z"/>
		<path id="b7c0abfd-ff94-4e97-8189-bfd4fd387d41" style="opacity:2.000000e-02;enable-background:new    ;" d="M229.7,229.8
			c0,0-5.4,6-3.4,7s15,21.3,15,21.3s42.7,5.3,50.7-2.6s7.9-22,7.9-22s-6.5,1.4-7.2,0.6s-4.6-4.4-4.6-4.4S233.4,226.5,229.7,229.8z"
			/>
		<path id="f09b5f1c-21b2-491d-b46f-6f1c252bff17" style="fill:#BE6F72;" d="M306.5,154.6l-13.9,11.1l-4.2,0.3l-1.5,0.1l-25.9,1.9
			l-26.9-2l-4-0.3l-5.1-0.4l-10.7-10.2c4.5-4.8,9.2-9.3,14.2-13.5c2.1-1.8,4.4-3.4,6.9-4.6l0.3-0.1c1.1-0.4,2.1-1.1,2.9-2.1
			c5.2-5.4,10-18.7,10-18.7s23-11.9,20.2,3.7s10.4,11.7,10.4,11.7l4.3,2l1.7,0.8l4.4,2l9.8,4.5C307.2,144.6,306.5,154.6,306.5,154.6
			z"/>
		
			<circle id="e546182f-16d6-4b16-983c-95334a0026a3" style="opacity:0.1;enable-background:new    ;" cx="259.9" cy="108.3" r="20.7"/>
		<path id="a42ef61d-6ce9-4f96-b948-57f7a99ffe3d" style="opacity:0.1;enable-background:new    ;" d="M306.5,169.4h-93v-0.2
			l0.8-13.4c4.5-4.8,9.2-9.3,14.2-13.5l58.4-2.3l2.7-2.9l9.8,4.5c7.7,3.6,7.1,13.6,7.1,13.6S307.6,166.8,306.5,169.4z"/>
		<path id="f87fa642-62b2-4120-aaa8-0364cd7ff5ed" style="fill:#E7C7CA;" d="M306.5,168.9h-93v-0.2l0.8-13.4
			c4.5-4.8,9.2-9.3,14.2-13.5l58.4-2.3l2.7-2.9l9.8,4.5c7.7,3.6,7.1,13.6,7.1,13.6S307.6,166.3,306.5,168.9z"/>
		<path id="a362a045-8889-427f-b24d-54c35189f95e" style="opacity:0.1;enable-background:new    ;" d="M244.9,131.2
			c0,0,14.7,18.7,34.2-0.4s2.2,42.6,2.2,42.6l-42.2,5L244.9,131.2z"/>
		<path id="b0eb487d-fe77-47da-a08f-55dee00dd1af" style="fill:#E7C7CA;" d="M244.9,132.1c0,0,14.7,18.7,34.2-0.4s2.2,42.6,2.2,42.6
			l-42.2,5L244.9,132.1z"/>
		<path id="bc437bbe-7abf-4b07-9487-dc6d8bd40902" style="opacity:0.1;enable-background:new    ;" d="M285.2,135.4l1.6,23.7
			l1.7,7.9l1.3,6c0,0,3.3,46.4,2.3,48.7s0.5,4.2,0.6,5.4s-0.2,4.3,0,5.7s0,2-3.5,1.5s-8.5-1.4-8.5-1.4s-12.5,0.9-16.9-0.6
			s-12.5-1.6-12.5-1.6s-12.4,0.3-16.4-0.2s-6.2,5-8.8,3.4s3.1-16.5,4.9-20.9s-2.5-15.3-2.5-15.3l5.6-30.9l1.2-7v-22l0.3-0.1
			c1.1-0.4,2.1-1.1,2.9-2l1.3,22.1l43.6,1.6v-24.9"/>
		<path id="fa0452f9-3a2a-498b-b801-9d7b4060b268" style="fill:#E7C7CA;" d="M285.2,134.5l1.6,23.7l1.7,7.9l1.3,6
			c0,0,3.3,46.4,2.3,48.7s0.5,4.2,0.6,5.4s-0.2,4.3,0,5.7s0,2-3.5,1.5s-8.5-1.4-8.5-1.4s-12.5,0.9-16.9-0.6s-12.5-1.6-12.5-1.6
			s-12.4,0.3-16.4-0.1s-6.2,4.9-8.8,3.4s3.1-16.5,4.9-20.9s-2.5-15.3-2.5-15.3l5.6-30.9l1.2-7v-22l0.3-0.1c1.1-0.4,2.1-1.1,2.9-2.1
			l1.4,22.1l43.6,1.5v-24.9"/>
		<path id="bd461d6f-24a8-4056-badc-3d1b6380a9e9" style="opacity:0.1;enable-background:new    ;" d="M290.2,85.1
			c-0.2-1-0.7-1.9-1.4-2.6c-0.7-0.5-1.6-0.9-2.4-1c-2.1-0.6-4.3-1-6.4-1.2c-0.3-1-0.8-2-1.4-2.9c-4.5-6.4-11.3-12.5-19.2-13.8
			c-4.1-0.7-8.9-0.1-11.6,3.2c-1.4,1.8-2.1,4.2-3.6,5.9c-2.8,3.4-7.9,3.8-11.5,6.5c-1.8,1.5-3.4,3.3-4.6,5.4c-1.6,2-2.8,4.4-3.4,6.9
			c-0.9,5.1,2.4,9.9,3,15c1.4,11.4-10.9,21.6-8.5,32.8c1.4,6.6,7.4,11.2,13.7,13.5c2.2,0.8,4.7,1.7,5.8,3.8c0.5,0.9,0.6,2,1,2.9
			c1.5,3.1,6.3,3.3,8.9,1s3.4-5.9,3.7-9.4c1.2-15-4.8-29.8-4.1-44.9c0.2-4.6,1.5-9.7,5.6-11.8c5.5-2.8,12.1,1.8,18.1,1
			c2.9,6.9,3.5,14.6,1.7,21.9c-1,4-2.6,7.9-2.7,12c-0.2,6.3,3.2,12,6.1,17.6c0.6,1,1.1,2.2,1.2,3.4c0,1.2-0.2,2.4-0.7,3.5
			c-1.7,4.5-4.5,8.6-4.8,13.3c-0.1,0.6,0,1.1,0.4,1.6c0.3,0.3,0.7,0.5,1.2,0.5c5,0.9,9.3-3.6,11.8-8c2.7-4.9,4.3-10.4,4.6-16
			c0.5-9.4-2.9-18.7-2.7-28.2C288.2,106.3,293.1,95.4,290.2,85.1z"/>
		<path id="bcea414c-89fc-4934-90d5-9224a54980bd" style="fill:#3E373A;" d="M290.7,84.6c-0.2-1-0.7-1.9-1.4-2.6
			c-0.7-0.5-1.6-0.9-2.5-1c-2.1-0.6-4.3-1-6.4-1.2c-0.3-1-0.8-2-1.4-2.9c-4.5-6.4-11.3-12.5-19.2-13.9c-4.1-0.7-8.9-0.1-11.6,3.2
			c-1.4,1.8-2.1,4.2-3.6,5.9c-2.8,3.4-7.9,3.8-11.5,6.5c-1.8,1.5-3.4,3.3-4.6,5.4c-1.6,2-2.8,4.4-3.4,6.9c-0.9,5,2.4,9.9,3,15
			c1.4,11.4-10.9,21.6-8.5,32.8c1.3,6.6,7.4,11.2,13.7,13.5c2.2,0.8,4.7,1.6,5.8,3.8c0.5,0.9,0.6,2,1,2.9c1.5,3.1,6.3,3.3,8.9,1
			s3.4-6,3.7-9.4c1.2-15-4.8-29.8-4.1-44.9c0.2-4.6,1.5-9.7,5.6-11.8c5.5-2.8,12.1,1.8,18.1,1c2.8,6.9,3.5,14.6,1.8,21.9
			c-1,4-2.6,7.9-2.7,12c-0.2,6.3,3.2,12,6.1,17.6c0.6,1,1.1,2.2,1.2,3.4c0,1.2-0.2,2.4-0.7,3.6c-1.7,4.5-4.5,8.6-4.8,13.3
			c-0.1,0.6,0,1.1,0.4,1.6c0.3,0.3,0.8,0.5,1.2,0.5c5,0.9,9.3-3.6,11.8-8c2.7-4.9,4.3-10.4,4.6-16c0.5-9.4-2.9-18.7-2.7-28.2
			C288.7,105.8,293.5,95,290.7,84.6z"/>
		<path id="b9a3aba2-37be-431c-8842-4a869c2dcaee" style="fill:#C3C7D9;" d="M280.4,289.9l18.4,0.6l-2.6-13.6l-14.1,1.3L280.4,289.9
			z"/>
		<path id="b9d7ab7e-a9d1-42bb-81c6-1b44c608208d" style="fill:#4B4B5B;" d="M337.4,257.6c-1.2,1.5-6,4.3-6.5,5.3s-6.2,3.7-9.1,4.2
			s-12.2,2.5-13.9,3.5c-1.2,0.8-11,3.2-17.4,4.6c-1.7,0.4-3.5,0.8-5.3,1c-2.8,0.1-33.2-10.2-33.2-10.2l5.9-6l0.3-0.1
			c1.7-0.6,9.3-3.2,13.6-4.4c4.8-1.4,10.4-7.1,10.4-7.1s8.2-2.8,9.3-3.1s-2.8-10.8-2.8-10.8s17.8-2.5,24.7-4.6s23-1.3,26,6.9
			S338.7,256,337.4,257.6z"/>
		<path id="ee182ab7-20bf-45aa-9527-8e0ed7703718" style="fill:#E7C7CA;" d="M256.5,283.7c0,0-3.6,3.7-7.1,3.4s-16,0.9-16,0.9
			c-2.3,0.9-4.4,2.1-6.3,3.6c-2.9,2.3-4.4,0.5-4.7,0.1l-0.1-0.1c-1.5,4.9-5.1,1.2-5.1,1.2s1.6-14.8,1.1-16.7s3-5,3-5l4.2-1.1
			l10.6-2.7l15.1,5.3L256.5,283.7z"/>
		<path id="ed964b67-ea5d-425a-92f2-5343d7861ec1" style="opacity:0.1;enable-background:new    ;" d="M225.5,270l-3.1,21.7
			l-0.1-0.1c-1.5,4.9-5.1,1.2-5.1,1.2s1.6-14.8,1.1-16.7s3-5,3-5L225.5,270z"/>
		<path id="b97399bd-1c88-430d-b677-6eff6f8c4b94" style="opacity:0.1;enable-background:new    ;" d="M247.4,208.3
			c0,0,8.2,2.8,15.3,0"/>
		<path id="eff55a54-e292-4d5f-8a64-8cf4e086adb2" style="opacity:0.1;enable-background:new    ;" d="M275.3,213.5c0,0,3.4,1.7,6,0
			"/>
		<path id="b17a333f-b91f-47e1-94f8-ca5af249f5fe" style="opacity:0.1;enable-background:new    ;" d="M275.3,217.5
			c0,0,5.7,0.8,6.8-0.8"/>
		<path id="bd4dabe6-2827-4432-90a9-a8f7b2727f0e" style="opacity:0.1;enable-background:new    ;" d="M273.5,226.2
			c0,0,10.7-1.4,13.4-3.3"/>
		<path id="fc300960-8346-4a1a-aeff-cae2aa39054e" style="opacity:0.1;enable-background:new    ;" d="M240.7,222.9
			c0,0,6,3.4,10.5,3.3"/>
		<path id="a8baa441-6e45-4317-9dd8-7e05e26f484c" style="opacity:0.1;enable-background:new    ;" d="M290.5,275.2
			c-1.7,0.4-3.5,0.7-5.3,1c-2.8,0.1-33.2-10.2-33.2-10.2l5.9-6l0.3-0.1c0.9,0.6,1.7,1.2,2.2,1.6c2.5,2,5-0.6,5.9-0.6s9,6.6,9,6.6
			s7.4,1.7,8.6,3.2s5.6,1.2,6.3,2.3C290.5,273.7,290.6,274.5,290.5,275.2z"/>
		<path id="a9ddd2eb-e70a-4e1c-88d9-9c8cadb381dc" style="fill:#4B4B5B;" d="M233.4,235c0,0-7.5,0.4-11.8-1.4s-18.7-6-22.9-3.1
			s-14.2,5.6-9.6,17.3s6.8,12.1,6.8,12.1c1.4,1.1,2.7,2.4,3.7,3.9c1.4,2.2,14.4,7.1,17.6,7.1s9,0,17,5.6c4.5,3.2,9.8,5.4,15.3,6.2
			c0,0,10.2,4.2,13.4,5.1s17.7,4.9,21.1,3.7s5.6-9,5.6-9s1.5-7,0.8-8s-5.1-0.8-6.3-2.3s-8.7-3.3-8.7-3.3s-8-6.6-8.9-6.6
			s-3.4,2.6-6,0.6c-5.1-3.8-10.4-7.2-16-10.2C238.5,249.5,233.4,235,233.4,235z"/>
		<path id="f2a4ad3b-0606-4bba-99ec-2d6624daf8f2" style="opacity:0.1;enable-background:new    ;" d="M218.3,239.5
			c2.7-0.6,5.5,0.2,7.6,2c3.7,3.1,16.2,9.3,16.2,9.3"/>
		<path id="a3e980c0-9fdd-4092-af56-1b1bc1158dba" style="opacity:0.1;enable-background:new    ;" d="M311,239.3
			c0,0-16.5,2.5-19.6,5.9"/>
		<path id="b47ab4ed-6e86-4f88-b494-58eda8ecc303" style="fill:#E7C7CA;" d="M330,290.5h-0.7c-2.6-0.1-11.5-0.4-13.2,0
			c-2,0.5-28.6,0-28.6,0l5.2-1.1c0,0-1.9-6.8-0.7-7.3c0,0-7-4.6-1.7-7.7c3.3-1.9,7.2-2.5,10.9-1.8l13.2-4.5l2.5-0.9
			c0,0,14.8,0.8,18.9,11S330,290.5,330,290.5z"/>
		<path id="a70c9eef-c373-4a60-b77d-a56720d11525" style="opacity:0.1;enable-background:new    ;" d="M330,290.5h-0.7
			c4.3-3.6,14.1-14.4-14.9-22.3l2.5-0.9c0,0,14.8,0.8,18.9,11S330,290.5,330,290.5z"/>
		<circle id="f7c71d6c-ff60-4362-a617-02964fb2414a" style="fill:#4B4B5B;" cx="302.7" cy="277.6" r="0.8"/>
		<circle id="a58f5cbf-8e11-4dee-a874-a4b77bc423b4" style="fill:#4B4B5B;" cx="298" cy="279" r="0.8"/>
		<g id="a49dd2c2-aa0b-4e70-b60c-c402dbd89d37" style="opacity:0.1;">
			<path id="f8fb8b84-868c-4e6d-8110-48226962430a" d="M275,107.5c0.2-5.1-0.7-10.2-2.7-14.9c-6,0.9-12.6-3.8-18.1-1
				c-4.1,2.1-5.3,7.2-5.6,11.8c0,1.2-0.1,2.4,0,3.6c0-0.4,0-0.8,0-1.3c0.2-4.5,1.5-9.7,5.6-11.8c5.5-2.8,12.1,1.8,18.1,1
				C274,99,274.9,103.2,275,107.5z"/>
			<path id="e2c468a9-22c1-43c0-9182-de8d71010a61" d="M228.3,106.7c0.1-1,0.1-2-0.1-3c-0.5-4.1-2.7-8-3.1-12
				c-0.5,4.8,2.5,9.4,3.1,14.3C228.3,106.2,228.4,106.4,228.3,106.7z"/>
			<path id="a4cb06ac-b0d4-47da-9380-7807ba85b885" d="M252.8,148.3c-0.3,3.4-1.1,7.1-3.7,9.4s-7.4,2.2-8.9-1c-0.5-0.9-0.5-2-1-2.9
				c-1-2.1-3.6-2.9-5.8-3.8c-6.3-2.4-12.3-6.9-13.7-13.5c-0.1-0.6-0.2-1.2-0.2-1.8c-0.1,1.4,0,2.8,0.2,4.1
				c1.4,6.6,7.4,11.2,13.7,13.5c2.2,0.8,4.7,1.7,5.8,3.8c0.5,0.9,0.5,2,1,2.9c1.5,3.1,6.3,3.3,8.9,1s3.4-6,3.7-9.4
				c0.1-1.8,0.2-3.6,0.1-5.4C252.9,146.2,252.9,147.3,252.8,148.3z"/>
			<path id="bbd1f36e-db76-46d2-a3b4-10c449cb4a03" d="M288.6,114.3v2c0.3-8.6,3.4-17.3,3.1-25.7
				C291.5,98.4,288.8,106.4,288.6,114.3z"/>
			<path id="f8deeb57-3d12-42d6-be68-3c2105aeede9" d="M278.6,149.2c0.1-0.6,0.2-1.1,0.1-1.7c-0.2-1.2-0.6-2.4-1.2-3.4
				c-2.7-5.1-5.7-10.3-6.1-16c0,0.2,0,0.5,0,0.7c-0.2,6.3,3.2,12,6.1,17.6C278,147.3,278.4,148.3,278.6,149.2z"/>
			<path id="a1cb802a-a439-4bfc-8330-192c39f00a88" d="M291.3,142.5c-0.3,5.6-1.9,11.1-4.7,16c-2.5,4.5-6.8,8.9-11.8,8
				c-0.4,0-0.9-0.2-1.2-0.6c-0.1-0.1-0.2-0.2-0.2-0.4c-0.1,0.4-0.1,0.7-0.1,1.1c-0.1,0.6,0,1.1,0.3,1.6c0.3,0.3,0.7,0.5,1.2,0.6
				c5,0.9,9.3-3.6,11.8-8c2.7-4.9,4.3-10.4,4.7-16c0-1.1,0.1-2.2,0-3.3C291.3,141.9,291.3,142.2,291.3,142.5z"/>
		</g>
		
			<path id="b0f3a74c-1d9e-445c-be98-bb75a6ec8522" style="opacity:0.1;fill:none;stroke:#000000;stroke-width:1.37;stroke-miterlimit:10;enable-background:new    ;" d="
			M292,282.1c0,0,11.7,4.9,19.5-6"/>
		
			<path id="bcbd34f4-1bf4-4c92-a968-edda6f51ce39" style="opacity:0.1;fill:none;stroke:#000000;stroke-width:1.37;stroke-miterlimit:10;enable-background:new    ;" d="
			M294.3,290.7c6.8-3.7,15-3.8,21.8-0.2"/>
		
			<path id="b6db0f57-ce38-426b-9fd6-dbc15c175810" style="opacity:0.1;fill:none;stroke:#000000;stroke-width:1.37;stroke-miterlimit:10;enable-background:new    ;" d="
			M230.2,289.3c0,0,4-9.1,14.8-2.2"/>
		<path id="f45cbe28-57af-4cf1-b5c6-1ebc62710985" style="opacity:0.1;enable-background:new    ;" d="M217.1,155l8.2-7.4
			c0,0,31.8-2.1,33.1,8.7c0,0,11.3-12.8,35-10l10,8l-27.8,12.2l-26.9,9.4l-19.8-8.9L217.1,155z"/>
		<path id="a82c9261-878e-4bdc-8ce1-369ba692a689" style="fill:#D5D6DB;" d="M217.1,155.5l8.2-7.4c0,0,31.8-2.1,33.1,8.7
			c0,0,11.3-12.8,35-10l10,8L275.8,167l-26.9,9.4l-19.9-8.9L217.1,155.5z"/>
		<path id="bf60c195-3924-44a4-8e37-faf6c2f5c790" style="opacity:0.1;enable-background:new    ;" d="M213.5,156.4l3.6,43.4
			l38.5,1.9l-1.7-43.2v-0.7L213.5,156.4z"/>
		<path id="a789ba4c-f610-4cb4-86cc-127a04a22b38" style="fill:#2CABE3;" d="M213.5,155.5l3.6,43.4l38.5,1.9l-1.7-43.2v-0.7
			L213.5,155.5z"/>
		<path id="f315ac54-5161-4053-8a2c-c158ac559611" style="opacity:0.1;enable-background:new    ;" d="M305.3,155.5l-39.7,5.9v43.6
			l38.8-5.6L305.3,155.5z"/>
		<path id="a6f5f21d-ac74-45ca-8940-fe9f57a2137e" style="fill:#2CABE3;" d="M305.3,154.6l-39.7,5.9v43.6l38.8-5.6L305.3,154.6z"/>
		<path id="e61d1f34-4071-4441-bef4-68999783379d" style="opacity:0.3;fill:#FFFFFF;enable-background:new    ;" d="M295.9,165.2
			l-21.4,2.4l0.5,7.3l21-2.3L295.9,165.2z"/>
		<path id="a04bed5d-d14b-4a58-8b57-b6920227d81f" style="fill:#BE6F72;" d="M219.2,222.2l2.2,5.9c0,0,3.2,2.8,6.8,1.4
			s6.6-2.1,8.2-3.4s3.7-8.2,3.7-8.2s2.2-7.4,4.3-9.3s7.9-27.4,0-24.9s-13.9,25.7-13.9,25.7c-0.9,1-2.1,1.7-3.4,1.9
			c-2,0.2-6-0.3-6.8,1.4S216.9,218.8,219.2,222.2z"/>
		<path id="a42d4e62-390f-44cf-8fbc-a18815020bdd" style="opacity:0.1;enable-background:new    ;" d="M265.6,161.4
			c-4.1,0.9-8.4-0.1-11.6-2.9l1.7,43.2c2.6,2.6,6.3,3.8,10,3.3L265.6,161.4z"/>
		<path id="e4d639b2-07ee-44bf-bc26-ba7dada6b62b" style="fill:#2CABE3;" d="M265.6,160.5c-4.1,0.9-8.4-0.1-11.6-2.9l1.7,43.2
			c2.6,2.6,6.3,3.8,10,3.3L265.6,160.5z"/>
		<path id="e728d456-fde7-44e6-8e11-e73b6bc3f01c" style="opacity:0.1;enable-background:new    ;" d="M265.6,160.5
			c-4.1,0.9-8.4-0.1-11.6-2.9l1.7,43.2c2.6,2.6,6.3,3.8,10,3.3L265.6,160.5z"/>
		<path id="e990d084-6182-4061-bf03-52f055e3d940" style="opacity:0.1;enable-background:new    ;" d="M266.5,155.6
			c0,0,16.1-4.9,20.4-4.2"/>
		<path id="b464ce14-9575-4d66-b343-bad7cde1b0f1" style="opacity:0.1;enable-background:new    ;" d="M248.4,153.5
			c0,0-15.6-3.7-18.3-2.7"/>
		<path id="fed15434-6695-41be-b2ff-03f6f046467f" style="opacity:0.1;enable-background:new    ;" d="M276.7,156.3
			c0,0,10.8-4,14.7-2.1"/>
		<path id="b95fd7fd-583a-4aff-b906-8a2903074cdb" style="opacity:0.1;enable-background:new    ;" d="M271.2,255.6
			c1.7-1.3,3.5-2.4,5.3-3.3c2.7-1.5,5.3-3.1,7.9-4.8"/>
		<path id="aeef3fac-fe6c-4169-af26-8bc6d0982909" style="opacity:0.1;enable-background:new    ;" d="M230.2,208.3
			c0,0-6.8,5.5-8.8,6s-3.3,4.8-3.3,4.8"/>
		<path id="b745739c-29ff-4abe-8588-0a56934f0eec" style="fill:#BE6F72;" d="M301.3,221.3l-2.2,5.9c0,0-3.3,2.8-6.8,1.4
			s-6.6-2.1-8.2-3.4s-3.7-8.1-3.7-8.1s-2.2-7.4-4.3-9.3s-7.9-27.4,0-24.9s13.9,25.7,13.9,25.7c0.9,1,2.1,1.7,3.4,1.9
			c2,0.2,6-0.3,6.8,1.4S303.6,218,301.3,221.3z"/>
		<path id="aa4577ef-5bd6-4f50-9bbf-d13ded9a1ba7" style="opacity:0.1;enable-background:new    ;" d="M297.5,210.5
			c0,0,4.4,2.9,4.4,6.3"/>
		<circle id="f7cf9fb9-19af-4f2c-9a98-42d8e35d06a0" style="fill:#BE6F72;" cx="259.9" cy="107.3" r="20.7"/>
		<path id="f34693b4-ac4d-47ca-bb29-ce53bc59a11c" style="fill:#3E373A;" d="M246.9,101.7c2.5-0.4,4.7-1.9,7.1-2.7
			c5.4-1.9,11.3-0.6,16.8,1.1c2,0.8,4.2,1.3,6.4,1.4c2.2,0.1,4.4-0.9,5.6-2.8c0.9-1.8,0.9-4,0-5.8c-1-1.8-2.3-3.4-3.8-4.7
			c-4.8-4.6-10.8-8.8-17.4-8.3c-2.7,0.3-5.2,1-7.6,2.2c-3.1,1.3-6.1,2.8-9,4.5c-2.2,1.3-6.4,3-7.6,5.4
			C234.4,97.4,242.4,102.5,246.9,101.7z"/>
		<path id="f7346fe7-cd14-42cd-91a1-113c42bf0cf9" style="opacity:0.1;enable-background:new    ;" d="M282.8,96.8
			c-1.3,1.8-3.4,2.9-5.6,2.8c-2.2-0.1-4.3-0.6-6.4-1.4c-5.4-1.7-11.4-3-16.8-1.1c-2.4,0.8-4.6,2.3-7.1,2.7
			c-3.7,0.6-9.6-2.6-10.2-6.7c-0.7,4.7,6.1,8.7,10.2,8.1c2.5-0.4,4.7-1.9,7.1-2.7c5.4-1.9,11.3-0.6,16.8,1.1c2,0.8,4.2,1.3,6.4,1.4
			c2.2,0.1,4.4-1,5.6-2.8c0.6-1,0.8-2.2,0.6-3.4C283.4,95.5,283.2,96.2,282.8,96.8L282.8,96.8z"/>
		<path id="b0296cc6-55bf-4303-a393-775dc90ac9d2" style="fill:#2CABE3;" d="M450.9,348.1c0,0,2.8,3.6-1.3,9s-7.3,10-6,13.4
			c0,0,6.1-10.1,11-10.2S456.3,354.1,450.9,348.1z"/>
		<path id="b39e8d20-f682-4e08-95e9-f90c57f7786d" style="opacity:0.1;enable-background:new    ;" d="M450.9,348.1
			c0.2,0.3,0.4,0.7,0.6,1.1c4.8,5.7,7.4,10.9,2.8,11.1c-4.3,0.1-9.5,7.8-10.7,9.8c0,0.1,0.1,0.3,0.1,0.5s6.1-10.1,11-10.2
			S456.3,354.1,450.9,348.1z"/>
		<path id="ac35cd5e-a6f8-404f-9f87-ef72783f5e03" style="fill:#61CCF2;" d="M456,352.6c0,1.3-0.1,2.3-0.3,2.3s-0.3-1-0.3-2.3
			s0.2-0.7,0.4-0.7S456,351.4,456,352.6z"/>
		<path id="b2ecc182-0526-4e52-a47f-9b3d90af5f37" style="fill:#61CCF2;" d="M457.7,354.2c-1.1,0.6-2.1,1-2.2,0.8s0.7-0.8,1.9-1.4
			s0.7-0.2,0.8,0S458.9,353.5,457.7,354.2z"/>
		<path id="ac324c39-2424-44e9-acfd-595c7f6af221" style="fill:#2CABE3;" d="M436.4,348.1c0,0-2.8,3.6,1.3,9s7.3,10,6,13.4
			c0,0-6.1-10.1-11-10.2S430.9,354.1,436.4,348.1z"/>
		<path id="b31bb4e1-3893-4c6d-93ff-e1ff50a6c18b" style="opacity:0.1;enable-background:new    ;" d="M436.4,348.1
			c-0.2,0.3-0.4,0.7-0.6,1.1c-4.8,5.7-7.4,10.9-2.8,11.1c4.3,0.1,9.5,7.8,10.7,9.8c0,0.2-0.1,0.3-0.1,0.5c0,0-6.1-10.1-11-10.2
			S430.9,354.1,436.4,348.1z"/>
		<path id="b7e0eebf-1098-4c4e-bd4a-41f5b4ee8134" style="fill:#61CCF2;" d="M431.2,352.6c0,1.3,0.1,2.3,0.3,2.3s0.3-1,0.3-2.3
			s-0.2-0.7-0.4-0.7S431.2,351.4,431.2,352.6z"/>
		<path id="f88a7c61-921d-4a45-9a2a-096d680f7bbc" style="fill:#61CCF2;" d="M429.5,354.2c1.1,0.6,2.1,1,2.2,0.8s-0.8-0.8-1.9-1.4
			s-0.7-0.2-0.8,0S428.4,353.5,429.5,354.2z"/>
		
			<ellipse id="fe34775f-7a94-439d-9319-547a6443ee1d" style="opacity:0.1;fill:#2CABE3;enable-background:new    ;" cx="443.6" cy="393.6" rx="28.7" ry="4.4"/>
		<path id="a694edba-2622-4d70-9187-be609940ebba" style="fill:#65617D;" d="M458.4,365.6l-0.1,1.1l-0.2,1.6L458,369l-0.2,1.6
			l-0.1,0.7l-0.2,1.6l-2.2,18c-0.2,1.6-2.8,2.9-6,2.9h-11.4c-3.2,0-5.8-1.3-6-2.9l-2.2-18l-0.2-1.6l-0.1-0.7l-0.2-1.6l-0.1-0.7
			l-0.2-1.6l-0.1-1.1c-0.1-0.9,1.3-1.7,3.1-1.7h23.4C457.1,364,458.5,364.7,458.4,365.6z"/>
		<path id="f1209192-77c8-47b2-8e18-0cf26ac3508a" style="fill:#9D9CB5;" d="M458.3,366.8l-0.2,1.6h-28.9l-0.2-1.6H458.3z"/>
		<path id="b01e10d7-ad8b-4bf8-95e1-8697c04b2fd8" style="fill:#9D9CB5;" d="M458,369l-0.2,1.6h-28.4l-0.2-1.6H458z"/>
		<path id="be86184f-271e-47d8-9f8f-8cb0f428b9cf" style="fill:#9D9CB5;" d="M457.7,371.3l-0.2,1.6h-27.8l-0.2-1.6H457.7z"/>
	</g>
</g>
</svg>
