<?xml version="1.0" encoding="utf-8"?>
<!-- Generator: Adobe Illustrator 23.0.0, SVG Export Plug-In . SVG Version: 6.00 Build 0)  -->
<svg version="1.0" id="Layer_1" xmlns="http://www.w3.org/2000/svg" xmlns:xlink="http://www.w3.org/1999/xlink" x="0px" y="0px"
	 viewBox="0 0 500 500" style="enable-background:new 0 0 500 500;" xml:space="preserve">
<title>onboarding</title>
<g id="ac9f4252-ee68-4d35-9cea-6b04699bc357">
	<g id="a39c26d6-1e29-4e76-b04e-167c58048fe8">
		<circle id="b64e8535-c949-40aa-b456-6a9f363c460c" style="opacity:0.2;fill:#48C4EF;" cx="251.6" cy="244.5" r="139.9"/>
		<path id="a828d7e2-f975-42d6-8406-0748199b3252" style="fill:#2CABE3;" d="M412,137.1l-8.6,21.6c1.6,7.5,3.3,15.9,4.6,25
			l15.2-31.9l0.3,0.4c-3.2-5.6-7.1-10.8-11.8-15.4L412,137.1z"/>
		<path id="fc06941b-42f6-4a29-a57d-a9b4fcedf966" style="fill:#2CABE3;" d="M403.1,157.4l8.3-20.9c-4.4-4.3-9.7-7.5-15.7-9.2
			c-0.3-0.1-0.6-0.1-0.9-0.2C395.6,129.1,399.4,140.8,403.1,157.4z"/>
		<path id="a6f28ec1-b49c-4fed-94be-518516c37cd5" style="fill:#2CABE3;" d="M438.1,203.6l0.2,0.5c-0.2-3.2-0.5-6.5-1-9.7
			l-26.5,33.1l-0.1-0.2c-0.1,2-0.1,3.9-0.3,5.8L438.1,203.6z"/>
		<path id="a0910ce6-27f3-43dc-be9f-307882d9c31c" style="fill:#2CABE3;" d="M433.3,175.8l0.2,0.4c-2.3-8.2-5.6-16.2-9.8-23.6
			l-15.5,32.5c1.2,8.4,2,16.6,2.4,24.4L433.3,175.8z"/>
		<path id="edf50c5b-b166-485b-bb4f-bfbc57d05db6" style="fill:#2CABE3;" d="M359.7,154.7c-2,5.8-3.4,11.7-4.1,17.8l54.1,31.5
			c-0.5-6.8-1.2-13.3-2.1-19.3l-47.9-29.5L359.7,154.7z"/>
		<path id="f80832fc-ef93-4478-86a7-c5f8df1fa6c9" style="fill:#2CABE3;" d="M354.8,179.5l0-0.5l55.1,31.1c-0.1-1.7-0.2-3.3-0.3-5
			l-54.3-31.7l0-0.5C355.2,175.1,355,177.3,354.8,179.5z"/>
		<path id="babf9511-844b-458b-9bf1-b70947896224" style="fill:#2CABE3;" d="M437.1,193.4l0.2,0.5c-0.8-5.8-2-11.5-3.6-17.1
			l-23,34.2c0.2,5.2,0.3,10.3,0.2,15.3L437.1,193.4z"/>
		<path id="edbd30a6-148f-44a9-94ef-78fe9c4883b5" style="fill:#2CABE3;" d="M407.8,254.6c-1.9,10.1-5.3,19.9-10.1,29.1
			c6.3-5.4,31.4-28.2,38.8-56.6L407.8,254.6z"/>
		<path id="e733779e-ce53-468f-85a4-c010968df74c" style="fill:#2CABE3;" d="M356.3,204.3c1.2,5.5,2.7,10.8,4.6,16.1l0.1-0.6
			l46.3,33.7c1.2-6.1,2-12.3,2.4-18.5L356.3,204.3z"/>
		<path id="a64e0dc1-f0e4-48a2-a087-522dee6fe01d" style="fill:#2CABE3;" d="M402.5,157.5c-4-18-8.2-30-8.2-30.2l0.3-0.2
			c-8.5-1.7-16.3,1-22.7,7.2L402.5,157.5z"/>
		<path id="f7badaa5-d536-462a-93d4-8533a08b95b8" style="fill:#2CABE3;" d="M410.4,234.6c0,0.6-0.1,1.2-0.1,1.8
			c-0.4,5.6-1.1,11.2-2.2,16.7l28.4-27.3l0.2,0.5c1.3-5,1.9-10.2,1.9-15.4c0-2-0.1-4.1-0.2-6.1L410.4,234.6z"/>
		<path id="b2eb9203-d854-4e54-b08e-fcb7b09d4259" style="fill:#2CABE3;" d="M407.4,183.5c-1.3-8.9-2.9-17.3-4.5-24.7l-31.4-23.8
			l0.1-0.5c-5.3,5.6-9.3,12.3-11.7,19.6L407.4,183.5z"/>
		<path id="a5584865-bc47-4aae-8746-990960c275d6" style="fill:#2CABE3;" d="M407.1,254.4L361.2,221c11.4,31.6,33.6,61.9,35,63.8
			C401.4,275.3,405.1,265.1,407.1,254.4z"/>
		<path id="aa247279-e8ac-442e-86eb-c9e6140f353e" style="fill:#2CABE3;" d="M409.8,233.9L409.8,233.9c0.5-7.5,0.6-15.1,0.2-22.6
			L354.8,180c-0.2,3-0.3,6.1-0.3,9.4c0.1,4.6,0.6,9.2,1.5,13.6L409.8,233.9z"/>
		<path id="b6f372a8-dd5e-477c-aeee-29516bc2e1c2" style="fill:#2CABE3;" d="M487.5,257.1l-20.3,11.1c-3.5,6.8-7.6,14.4-12.4,22.1
			l32.1-14.8l0,0.5c1.2-6.4,1.4-12.9,0.7-19.3L487.5,257.1z"/>
		<path id="f7103116-a4ba-4be7-952f-ba869c9e2fb7" style="fill:#2CABE3;" d="M467.8,267l19.7-10.8c-0.6-6.1-2.7-12-6.2-17
			c-0.2-0.2-0.4-0.5-0.5-0.7C480,240.4,475.5,251.8,467.8,267z"/>
		<path id="bf300b82-a643-4bdf-89ae-70a4ebe66b6f" style="fill:#2CABE3;" d="M465.3,325l-0.2,0.5c1.9-2.6,3.7-5.3,5.4-8L429,326
			l0.1-0.2c-1.3,1.5-2.6,2.9-3.9,4.3L465.3,325z"/>
		<path id="b1ab6bca-24c3-4598-abe9-2d70661c8d33" style="fill:#2CABE3;" d="M479.3,300.4l-0.1,0.5c3.5-7.8,6-16,7.5-24.5L454,291.6
			c-4.5,7.3-9.1,14-13.8,20.3L479.3,300.4z"/>
		<path id="b9eef66c-c91f-47da-afa2-6a01d3cb4a53" style="fill:#2CABE3;" d="M436,237.2c-5.2,3.2-10.1,6.9-14.5,11l21.5,58.8
			c4-5.5,7.6-11,10.7-16.2l-18.1-53.3L436,237.2z"/>
		<path id="a50a88ac-7164-4f75-b1c8-a8f592993021" style="fill:#2CABE3;" d="M416.5,253.3l0.4-0.4l22.6,59.1c1-1.3,2-2.7,3-4
			l-21.6-59l0.4-0.4C419.6,250.1,418,251.6,416.5,253.3z"/>
		<path id="a8667814-b37b-4eb0-a631-bd2711431c4b" style="fill:#2CABE3;" d="M471,316.4l-0.1,0.5c3.1-5,5.8-10.1,8.1-15.4
			l-39.6,11.6c-3.2,4.2-6.4,8.1-9.6,11.9L471,316.4z"/>
		<path id="a863b1c3-f33e-4d8c-8b6d-78c1ca3ee6ae" style="fill:#2CABE3;" d="M409.4,344.9c-7.9,6.6-16.8,12-26.3,16
			c8.3-0.1,42.1-1.7,66-18.9L409.4,344.9z"/>
		<path id="fac4a6bf-24b7-4710-8559-180564c68d53" style="fill:#2CABE3;" d="M401.8,273.3c-2.6,5-4.8,10.1-6.7,15.4l0.4-0.4
			l14.2,55.5c4.8-4,9.4-8.2,13.6-12.7L401.8,273.3z"/>
		<path id="e4201fb7-b829-436f-9df4-a56c93857ca1" style="fill:#2CABE3;" d="M467.2,266.8c8.4-16.4,12.9-28.4,12.9-28.6h0.3
			c-5.4-6.8-13.2-9.6-22.1-8.9L467.2,266.8z"/>
		<path id="ae4b1b3d-5591-40e2-a8da-2849483e1d68" style="fill:#2CABE3;" d="M424.2,331.1c-0.4,0.4-0.8,0.9-1.2,1.3
			c-3.9,4-8,7.9-12.3,11.5L450,341l-0.2,0.5c4.2-3.1,7.9-6.7,11.2-10.7c1.3-1.6,2.5-3.2,3.7-4.8L424.2,331.1z"/>
		<path id="ed2d8ef9-168c-441f-87e1-14428f4f1249" style="fill:#2CABE3;" d="M454.4,289.9c4.7-7.7,8.8-15.1,12.2-21.9l-9-38.3
			l0.4-0.3c-7.7,0.9-15,3.6-21.5,7.7L454.4,289.9z"/>
		<path id="b5ddb8bb-c96b-4249-9bbf-da12ca5b84fe" style="fill:#2CABE3;" d="M409,344.3l-14.1-55.1c-11.4,31.6-13.6,69.1-13.7,71.5
			C391.3,356.8,400.7,351.2,409,344.3z"/>
		<path id="a7202b33-1909-4da8-bddb-bf4dc05da892" style="fill:#2CABE3;" d="M424.1,330.2L424.1,330.2c5.2-5.5,10-11.3,14.6-17.3
			l-22.6-59.3c-2,2.2-4.1,4.6-6.1,7.1c-2.9,3.6-5.4,7.4-7.5,11.5L424.1,330.2z"/>
		<path id="b8c8b7b4-1a0e-49ff-9fa6-9d8914d37594" style="fill:#2CABE3;" d="M350.9,222.3l-1.5,23.1c3.9,6.6,8,14.1,12.1,22.3
			l4.6-35l0.4,0.3c-4.8-4.4-10.1-8.1-15.9-11L350.9,222.3z"/>
		<path id="f9ac8e6c-b6f2-47f2-9462-94ff954ef942" style="fill:#2CABE3;" d="M348.8,244.3l1.4-22.4c-5.5-2.8-11.6-4.1-17.7-3.9
			c-0.3,0-0.6,0-0.9,0.1C332.8,219.7,340.1,229.6,348.8,244.3z"/>
		<path id="f82e0490-ddac-40eb-b27d-d8181aa12529" style="fill:#2CABE3;" d="M396.4,277.4l0.3,0.4c-1.2-3-2.5-6-3.9-8.9l-15,39.7
			l-0.1-0.2c0.5,1.9,1.1,3.7,1.5,5.6L396.4,277.4z"/>
		<path id="ac2e2c7d-3b90-43f7-9921-777117a17d86" style="fill:#2CABE3;" d="M383.1,252.4l0.4,0.4c-4.8-7.1-10.3-13.6-16.6-19.4
			l-4.7,35.7c3.7,7.7,7,15.2,9.8,22.5L383.1,252.4z"/>
		<path id="f9e6c11e-966c-4adb-bdfe-481f4bfed238" style="fill:#2CABE3;" d="M306.6,255.1c-0.1,6.1,0.4,12.2,1.6,18.2l61.2,13.3
			c-2.6-6.3-5.3-12.3-7.9-17.7l-54.7-13.3L306.6,255.1z"/>
		<path id="b22bfa21-7860-4e67-ad49-94ad1858e195" style="fill:#2CABE3;" d="M309.7,280.3l-0.1-0.5l62,12.6
			c-0.6-1.6-1.2-3.1-1.8-4.6l-61.4-13.4l-0.1-0.5C308.7,275.9,309.1,278.1,309.7,280.3z"/>
		<path id="fb90130b-7b0d-4750-b401-eda1767ee7fd" style="fill:#2CABE3;" d="M392.2,268l0.3,0.4c-2.6-5.2-5.5-10.3-8.7-15.1
			l-11.4,39.6c1.8,4.9,3.5,9.7,4.9,14.5L392.2,268z"/>
		<path id="b85547fa-e88c-4c98-afd5-26ffdb27419b" style="fill:#2CABE3;" d="M383.3,335.3c1.3,10.2,1.1,20.6-0.6,30.8
			c4.3-7.1,21.1-36.5,19.4-65.9L383.3,335.3z"/>
		<path id="bf0abc7d-551a-49b4-a9ac-3ce23d300246" style="fill:#2CABE3;" d="M318.7,303.3c2.8,4.8,5.9,9.5,9.4,13.9l-0.1-0.5
			l54.4,17.7c-0.8-6.2-1.9-12.3-3.4-18.4L318.7,303.3z"/>
		<path id="fff7ba6a-7105-4f2e-80fc-099198540639" style="fill:#2CABE3;" d="M348.2,244.6c-9.4-15.8-17.1-26.1-17.2-26.2l0.2-0.3
			c-8.6,1-15.1,6-19.3,13.9L348.2,244.6z"/>
		<path id="bbc39d36-c14f-4120-93d5-57f3983f51a4" style="fill:#2CABE3;" d="M379.6,315.4c0.1,0.6,0.3,1.1,0.4,1.7
			c1.3,5.5,2.4,11,3.1,16.5l18.6-34.8l0.3,0.4c-0.4-5.2-1.4-10.3-3-15.2c-0.6-1.9-1.3-3.8-2.1-5.7L379.6,315.4z"/>
		<path id="ff75f5a0-7e33-4c22-ac60-e065ea547ac3" style="fill:#2CABE3;" d="M360.9,267.8c-4-8.1-8.1-15.5-11.9-22.1l-37.2-12.9
			l-0.1-0.5c-3.3,7-5,14.6-5.1,22.3L360.9,267.8z"/>
		<path id="e741d95b-6b30-4184-92d6-97b15511cb8b" style="fill:#2CABE3;" d="M382.6,335.4l-54-17.6c20.6,26.5,51.1,48.5,53,49.9
			C383.6,357,383.9,346.1,382.6,335.4z"/>
		<path id="bec39863-140f-4f1f-bc85-2e8984c9c640" style="fill:#2CABE3;" d="M378.7,315L378.7,315c-1.9-7.3-4.1-14.5-6.7-21.6
			l-62.2-12.6c0.8,2.9,1.6,5.9,2.7,9c1.5,4.3,3.4,8.5,5.6,12.5L378.7,315z"/>
		<path id="bcf81746-b6f6-495d-8af0-c885c5f4ad17" style="opacity:0.2;fill:#48C4EF;" d="M322.3,359c42.3-0.5,84.6-0.2,126.9,0.9
			c3.6-0.1,7.2,0.3,10.6,1.1c3.2,1,5.7,3,4.8,5c-16.5,0.5-33.1,0.6-49.6,0.5c-3.6,1.8-7.6,4.4-5.3,6.8c1.5,1.6,5.3,2.1,8.6,2.1
			c6,0,12-1,17.9-0.4s11.8,3.7,10.1,6.9c-1.3,2.5-6.3,3.7-10.8,3.9s-9.2-0.2-13.6,0.4c-4.2,0.5-7.9,2-11.8,3
			c-6.5,1.4-13.2,2.3-19.9,2.5c-52.1,3.2-104.6,3.2-156.9,3.1c-21.2,0-42.7,0-63.2-3.1c-11.7-1.8-22.9-4.5-34.7-5.9
			c-14.1-1.7-28.7-1.5-43.2-1.4c-25.3,0.1-50.7-0.4-76-1.5c-1.9-0.1-4.2-0.4-4.7-1.4c-0.6-1.2,1.8-2.1,3.8-2.6
			c11.5-2.7,23.3-4.4,35.1-5.2c6-0.4,12.1-0.6,17.6-2s10.3-4.3,10.3-7.7c0-1-0.4-2.1,0.4-3c1.1-1.2,3.9-1.5,6.4-1.6
			c26.9-1.5,54-2.1,81.1-1.8c9.5,0.1,19.1,0.3,28.5-0.4c7.7-0.5,15.3-1.6,22.9-2.5c10.2-1.2,54.8-7.5,61.3-2.4
			c4.9,3.8-5.2,4.6,7.9,6.2C298.2,359.7,310.8,359.1,322.3,359z"/>
		<circle id="a0ef9a4a-3ab0-4024-b4a1-55d42b9058bd" style="fill:#2F2E41;" cx="298.9" cy="200.9" r="25.1"/>
		<circle id="a56d1308-8e34-4632-8a07-ca3dc8d3d58e" style="fill:#2F2E41;" cx="326.1" cy="167.8" r="25.1"/>
		<path id="f75dde75-f7eb-4751-8e31-663d6f05134c" style="fill:#2F2E41;" d="M347.8,188.6c-11.3,8.1-27,5.6-35.1-5.7
			c-1.6-2.3-2.9-4.8-3.7-7.5c1.9,13.8,14.5,23.4,28.3,21.5c13.5-1.8,23.1-14.1,21.6-27.7c-0.2-1.4-0.5-2.8-0.9-4.2
			C359.2,174.2,355.3,183.2,347.8,188.6z"/>
		<circle id="ae34a5f9-76d6-4860-b276-99200e35260b" style="fill:#A0616A;" cx="292.4" cy="210.8" r="20.5"/>
		<path id="b8a75eb9-f839-4e18-abf9-0b5ce3bb2ccc" style="fill:#A0616A;" d="M285.3,227.5c0,0,8.4,12.6,7.1,18c0,0-5.5,2.5-5.5,3.4
			s-5,8.8-5,8.8l-5.9,8l-2.5,10.5h12.1l13.4-10.5l13-14.2c0,0,8.8-4.2,13.4-0.8l2.5,2.1c0,0-8.8-11.7-13-14.2c0,0-7.5-9.2-6.7-18.4
			L285.3,227.5z"/>
		<path id="a7902ed9-3e53-4407-8e54-dbf980b12779" style="fill:#A0616A;" d="M288.6,245.1c0,0-8.4,4.6-11.7,13.4
			s-18.4,38.1-18.4,38.1s-1.3,18.9-0.4,19.7s10.5-8.4,12.1-10.9s8.4-32.7,8.4-32.7l10.9-17.6l2.1-10.1L288.6,245.1z"/>
		<path id="a10a6a8e-a615-494e-b25a-78a8ec08b1bd" style="fill:#A0616A;" d="M262.3,297.9l-3.8-1.3c0,0-23-14.3-24.3-20.5
			s-19.7-27.2-20.1-15.9c-0.4,11.3,13.4,23.9,13.4,23.9s30.2,42.3,31.9,30.2L262.3,297.9z"/>
		<path id="b33bf1c1-d550-41a9-990d-47b1f2072336" style="fill:#A0616A;" d="M300.4,269c0,0,0.4,11.7,16.8,15.9
			c0,0,16.8,22.6,18.4,32.7s45.7,61.6,45.7,61.6s40.6,5,40.6,0S388,370,388,370s-35.6-52.8-37.3-59.9s-17.6-59.9-25.1-59.5
			c0,0-7.1-3.4-11.3-0.8S300.4,269,300.4,269z"/>
		<path id="aa15c2bf-9516-45b7-9ee7-67def71bcbbc" style="fill:#A0616A;" d="M251.4,316.3c0,0-29.4-39.3-35.6-41.9
			s-14.2-4.2-18.9,1.7s-59.1,74.6-59.1,74.6s-19.3,19.7-28.9,15.9c0,0-5,4.2,6.7,5c7.6,0.4,15.3-0.5,22.6-2.5c0,0,7.1,1.3,12.1,2.5
			s11.3,1.7,10.9-1.7l-1.7-13.4c0,0,43.2-35.5,44.4-50.7c0,0-0.8-7.1,0-6.3s18.4,19.7,26.4,23.9s27.7,10.1,27.7,10.1L251.4,316.3z"
			/>
		<path id="ebfc8def-9c8d-4c0d-b0d9-6c93a1666fda" style="opacity:0.1;enable-background:new    ;" d="M251.4,316.3
			c0,0-29.4-39.3-35.6-41.9s-14.2-4.2-18.9,1.7s-59.1,74.6-59.1,74.6s-19.3,19.7-28.9,15.9c0,0-5,4.2,6.7,5
			c7.6,0.4,15.3-0.5,22.6-2.5c0,0,7.1,1.3,12.1,2.5s11.3,1.7,10.9-1.7l-1.7-13.4c0,0,43.2-35.5,44.4-50.7c0,0-0.8-7.1,0-6.3
			s18.4,19.7,26.4,23.9s27.7,10.1,27.7,10.1L251.4,316.3z"/>
		<path id="a006a5d3-d09d-456f-900e-0b2ad2b1dd14" style="fill:#A0616A;" d="M256,321.8c0,0-38.6-14.7-43.6-18s-23-10-32.3-2.5
			s-54,42.3-69.1,45.7S70,358.3,70,358.3s-16.8,1.3,1.3,8.4c0,0,22.2,2.1,26,5.5s16.3,7.5,17.2,2.1s3.3-12.6,8-13.4
			s59.9-15.9,68.3-32.3c0,0,18.9,10.5,30.6,22.6s39.3,18.9,39.3,18.9L256,321.8z"/>
		<path id="fa0e4adc-4664-4212-a491-00b28b2410ad" style="fill:#3F3D56;" d="M269.8,308.4c0,0-18.4,4.9-19.9,3.1s-9.5,8.2-1.9,28.4
			s5.9,29.3,10.1,32.3c4.2,2.9,23.9-1.7,29.8,0.4s13.4,3.8,15.9-8.4s8.8-33.5,7.5-36.5s-8-9.6-8-9.6l-13.8-7.1L269.8,308.4z"/>
		<path id="a4076731-1f43-4987-bdfb-d689fcf5196c" style="fill:#2F2E41;" d="M333.3,261.2c0,0-2.9-8.2-8.3-9.7
			c-0.5-0.1-0.9-0.3-1.4-0.4c-4.6-2-9.9-0.5-12.7,3.6c-5.5,7.5-10.5,16.3-6.3,21.4s12.6,8,12.6,8l6.3,8c0,0-12.6,22.6-12.6,33.1
			c0,0-0.4,4.2-7.5-3.4S267,309,267,309s6.1-8.2,1.5-12s-8.8-18.8,2.1-24.7l18.7-27.5l3.4,0.4c0,0-4.4,4-4.8,6.1
			s-17.2,16.8-10.5,19.3s17.6-2.9,22.2-9.2c2.5-3.5,6.1-8.2,10.6-11.2c4.7-3.1,10.7-3.4,15.7-0.8l1.4,0.7l0,0
			c2.7,1.9,4.9,4.6,6.2,7.6l0.5,1.2L333.3,261.2z"/>
		<circle id="a1fc4268-fddb-485f-abac-b9ccc3a3cad3" style="fill:#2F2E41;" cx="305.6" cy="205.1" r="18.4"/>
		<ellipse id="e52ae42e-18d3-4485-a95b-0d8f4964237c" style="fill:#2F2E41;" cx="290.1" cy="198.2" rx="16.3" ry="12.8"/>
		<ellipse id="aa08d0ac-5925-412d-967f-3c5ec0ea3cd8" style="fill:#A0616A;" cx="296.2" cy="218.3" rx="2.7" ry="4.8"/>
		<path id="b0be0291-04d8-4ba2-87a2-4567a1174c74" style="fill:#FF6584;" d="M300.8,175.9v33.4h-9.6v-33.4c0-1.2,1-2.3,2.3-2.3h5.1
			C299.8,173.7,300.8,174.7,300.8,175.9z"/>
		<circle id="b868aa8b-09fe-4628-9943-7bf98332a319" style="fill:#2CABE3;" cx="296" cy="216" r="10.5"/>
		<circle id="abc70f31-73e2-4f8d-a52c-37e0a2274852" style="opacity:0.2;fill:#48C4EF;" cx="296" cy="216" r="4.6"/>
		<circle id="f55d7a85-a9f0-4bda-8524-065d095a0d3a" style="fill:#FF6584;" cx="296" cy="216" r="1.3"/>
		<path id="f6195ba5-6239-4735-bf6e-5151b31149dc" style="opacity:0.1;enable-background:new    ;" d="M300.8,175.9v1.5h-9.6v-1.5
			c0-1.2,1-2.3,2.3-2.3h5.1C299.8,173.7,300.8,174.7,300.8,175.9z"/>
		<path id="e82df187-b754-4f09-a18a-4a062b690f86" style="fill:#2F2E41;" d="M188.9,258.6l24.7-24.7c1.8-1.8,4.7-1.8,6.5,0
			c0,0,0,0,0,0l22.2,22.2c1.8,1.8,1.8,4.7,0,6.5c0,0,0,0,0,0l-23.1,23c-1.7,1.7-4.4,1.8-6.3,0.2l-23.8-20.6
			c-1.9-1.7-2.1-4.6-0.5-6.5C188.7,258.7,188.8,258.7,188.9,258.6L188.9,258.6z"/>
		<path id="f027eca2-7665-43e0-b3d6-59daecd34e27" style="fill:#FFFFFF;" d="M195.8,262.5l21.6-21.6l17.8,17.8l-20.7,20.7
			L195.8,262.5z"/>
		<circle id="f7953836-3318-4927-9df1-4dc461bb14e1" style="fill:#2CABE3;" cx="215.9" cy="260" r="10.3"/>
		<path id="aa9ed6b4-6e81-4fa9-9661-f432105db909" style="opacity:0.1;enable-background:new    ;" d="M211.4,268.8
			c-4.2-3.9-4.4-10.4-0.5-14.6c2.8-3,7.1-4.1,11-2.7c-4.7-3.2-11.1-2-14.3,2.7s-2,11.1,2.7,14.3c0.7,0.5,1.5,0.9,2.3,1.2
			C212.1,269.4,211.7,269.1,211.4,268.8z"/>
		<path id="a96e2ab7-d159-4014-a018-1ea0e6d97183" style="opacity:0.2;fill:#48C4EF;" d="M221,257.9c1.2,1.1,1.3,5.3-0.6,7.3
			s-5,1.1-6.2-0.1s-0.1-2.1,1.8-4.1S219.8,256.8,221,257.9z"/>
		<circle id="b45a207f-b49c-446b-a6a8-677263c96aff" style="fill:#2F2E41;" cx="210.6" cy="260.1" r="3.1"/>
		<circle id="b4055864-b3df-4df4-97b2-31fa5f8ab329" style="fill:#2F2E41;" cx="216.1" cy="254.3" r="3.1"/>
		<circle id="be952f13-33bc-45b1-a356-3bda99748aca" style="opacity:0.2;fill:#48C4EF;" cx="210.6" cy="260.1" r="0.8"/>
		<circle id="b0107526-b0b9-4c48-af77-8834a273ba3a" style="opacity:0.2;fill:#48C4EF;" cx="210.2" cy="258.3" r="0.4"/>
		<circle id="aae85b10-bf31-43b0-b989-2660e183f2ff" style="opacity:0.2;fill:#48C4EF;" cx="215.7" cy="252.4" r="0.4"/>
		<circle id="b7a27cfd-c1e4-4e09-bc5f-ef445af23040" style="opacity:0.2;fill:#48C4EF;" cx="216.1" cy="254.3" r="0.8"/>
	</g>
</g>
</svg>
