<svg xmlns="http://www.w3.org/2000/svg" width="18.923" height="17.534" viewBox="0 0 18.923 17.534">
  <g id="User" transform="translate(-0.102 -0.185)">
    <path id="Shape" d="M4.615,11.077C2.07,11.077,0,8.593,0,5.539S2.07,0,4.615,0,9.23,2.485,9.23,5.539,7.16,11.077,4.615,11.077Zm0-9.693A2.9,2.9,0,0,0,2.33,2.6a4.791,4.791,0,0,0-.946,2.943A4.789,4.789,0,0,0,2.33,8.481,2.9,2.9,0,0,0,4.615,9.692,2.9,2.9,0,0,0,6.9,8.481a4.79,4.79,0,0,0,.946-2.942A4.791,4.791,0,0,0,6.9,2.6,2.9,2.9,0,0,0,4.615,1.384Z" transform="translate(4.948 0.185)" fill="#f78500"/>
    <path id="Shape-2" data-name="Shape" d="M13.685,0a.7.7,0,1,0-.138,1.385,4.5,4.5,0,0,1,3.96,4.154H1.417a4.532,4.532,0,0,1,3.96-4.154A.7.7,0,1,0,5.238,0,5.988,5.988,0,0,0,0,6.23a.692.692,0,0,0,.692.692H18.231a.692.692,0,0,0,.692-.692A5.988,5.988,0,0,0,13.685,0Z" transform="translate(0.102 10.796)" fill="#f78500"/>
  </g>
</svg>
